<svg width="1340" height="529" viewBox="0 0 1340 529" fill="none" xmlns="http://www.w3.org/2000/svg">
<path d="M94.2182 196H138.672C158.987 196 167.352 182.377 167.352 163.496V125.017C167.352 107.092 158.748 101.595 151.817 98.966C158.748 96.337 165.201 89.406 165.201 74.349V47.103C165.201 29.895 158.987 18.184 136.76 18.184H94.2182V196ZM129.351 114.979C137.955 114.979 139.867 119.042 139.867 126.451V158.955C139.867 166.842 137.955 170.905 129.351 170.905H121.225V114.979H129.351ZM129.351 42.323C136.76 42.323 138.672 46.147 138.672 53.556V76.022C138.672 83.431 136.76 88.45 129.351 88.45H121.225V42.323H129.351ZM219.889 159.911C219.889 167.32 217.499 171.861 211.046 171.861C205.31 171.861 202.442 167.798 202.442 159.672V54.034C202.442 46.147 204.115 42.323 210.807 42.323C217.499 42.323 219.889 46.386 219.889 54.034V85.343H246.418V53.556C246.418 36.109 243.072 16.511 213.436 16.511H207.222C182.844 16.511 174.957 33.958 174.957 52.122V160.628C174.957 178.553 180.693 198.151 208.178 198.151H214.153C239.965 198.151 246.418 178.792 246.418 159.672V118.564H219.889V159.911ZM255.03 18.184V196H317.887V168.993H282.037V117.608H309.044V90.601H282.037V43.996H316.453V18.184H255.03ZM373.572 196H400.579V18.184H332.464C332.464 111.633 332.703 138.401 330.791 156.565C330.074 164.93 328.879 168.515 322.426 168.515H320.514V196H327.206C347.282 196 354.213 186.201 355.408 168.037C357.559 142.225 357.798 101.595 357.798 43.996H373.572V196ZM411.173 18.184V196H474.03V168.993H438.18V117.608H465.187V90.601H438.18V43.996H472.596V18.184H411.173ZM507.488 117.847H525.891V196H552.898V18.184H525.891V89.406H507.488V18.184H480.481V196H507.488V117.847ZM589.878 117.847H608.281V196H635.288V18.184H608.281V89.406H589.878V18.184H562.871V196H589.878V117.847ZM690.91 196H716.961L693.778 18.184H661.752L640.003 196H664.142L667.488 162.54H687.325L690.91 196ZM677.287 70.286L684.457 136.011H670.356L677.287 70.286ZM766.236 121.432V196H793.243V18.184H749.506C731.342 18.184 722.26 25.593 722.26 45.669V95.142C722.26 106.375 727.279 113.545 737.078 116.652L715.568 196H743.292L763.129 121.432H766.236ZM766.236 95.62H759.066C751.657 95.62 749.267 90.84 749.267 82.953V53.795C749.267 46.147 750.701 42.323 759.066 42.323H766.236V95.62ZM828.023 196H852.162V81.041L868.653 196H879.408L895.66 81.041V196H920.994V18.184H888.729L875.584 112.111L862.678 18.184H828.023V196ZM976.84 196H1003.85V18.184H976.84L957.481 114.501V18.184H930.474V196H957.481L976.84 99.683V196ZM1057.06 122.149C1075.46 122.149 1084.78 110.677 1084.78 89.645V47.581C1084.78 26.31 1076.18 18.184 1057.06 18.184H1014.27V196H1041.28V122.149H1057.06ZM1041.28 42.323H1048.21C1056.1 42.323 1057.53 47.581 1057.53 54.512V83.67C1057.53 91.079 1056.58 96.576 1048.21 96.576H1041.28V42.323ZM1166.06 57.141C1166.06 32.763 1157.7 16.511 1131.41 16.511H1126.87C1101.3 16.511 1092.21 32.524 1092.21 57.38V156.326C1092.21 181.182 1101.3 198.151 1127.11 198.151H1131.65C1157.7 198.151 1166.06 181.182 1166.06 156.326V57.141ZM1138.58 158.238C1138.58 165.886 1136.91 171.861 1129.5 171.861C1121.85 171.861 1119.7 165.886 1119.7 158.238V55.946C1119.7 46.625 1122.33 42.323 1129.26 42.323C1135.47 42.323 1138.58 46.864 1138.58 55.946V158.238ZM1175.32 196H1219.77C1240.09 196 1248.45 182.377 1248.45 163.496V125.017C1248.45 107.092 1239.85 101.595 1232.92 98.966C1239.85 96.337 1246.3 89.406 1246.3 74.349V47.103C1246.3 29.895 1240.09 18.184 1217.86 18.184H1175.32V196ZM1210.45 114.979C1219.06 114.979 1220.97 119.042 1220.97 126.451V158.955C1220.97 166.842 1219.06 170.905 1210.45 170.905H1202.33V114.979H1210.45ZM1210.45 42.323C1217.86 42.323 1219.77 46.147 1219.77 53.556V76.022C1219.77 83.431 1217.86 88.45 1210.45 88.45H1202.33V42.323H1210.45ZM422.628 230.794V246.807H421.911C392.275 246.807 380.086 258.996 380.086 288.632V348.621C380.086 377.54 392.514 390.446 422.15 390.446H422.628V413.39H449.635V390.446H450.113C479.988 390.446 492.177 377.779 492.177 348.86V288.632C492.177 259.235 479.988 246.807 450.352 246.807H449.635V230.794H422.628ZM422.628 270.468V366.785H421.911C409.722 366.785 407.571 358.898 407.571 343.602V288.871C407.571 278.116 409.961 270.468 421.911 270.468H422.628ZM449.635 270.468H450.591C462.302 270.468 464.692 278.116 464.692 288.871V343.602C464.692 358.898 462.78 366.785 450.591 366.785H449.635V270.468ZM542.935 411H568.986L545.803 233.184H513.777L492.028 411H516.167L519.513 377.54H539.35L542.935 411ZM529.312 285.286L536.482 351.011H522.381L529.312 285.286ZM599.914 332.847H618.317V411H645.324V233.184H618.317V304.406H599.914V233.184H572.907V411H599.914V332.847ZM655.775 233.184V411H718.632V383.993H682.782V332.608H709.789V305.601H682.782V258.996H717.198V233.184H655.775ZM768.342 337.149C786.745 337.149 796.066 325.677 796.066 304.645V262.581C796.066 241.31 787.462 233.184 768.342 233.184H725.561V411H752.568V337.149H768.342ZM752.568 257.323H759.499C767.386 257.323 768.82 262.581 768.82 269.512V298.67C768.82 306.079 767.864 311.576 759.499 311.576H752.568V257.323ZM877.35 272.141C877.35 247.763 868.985 231.511 842.695 231.511H838.154C812.581 231.511 803.499 247.524 803.499 272.38V371.326C803.499 396.182 812.581 413.151 838.393 413.151H842.934C868.985 413.151 877.35 396.182 877.35 371.326V272.141ZM849.865 373.238C849.865 380.886 848.192 386.861 840.783 386.861C833.135 386.861 830.984 380.886 830.984 373.238V270.946C830.984 261.625 833.613 257.323 840.544 257.323C846.758 257.323 849.865 261.864 849.865 270.946V373.238ZM913.135 332.847H931.538V411H958.545V233.184H931.538V304.406H913.135V233.184H886.128V411H913.135V332.847Z" fill="#EBE6E1"/>
<path d="M447.281 489H445.145V472.2H447.281V479.208H453.281V472.2H455.417V489H453.281V481.104H447.281V489ZM458.377 480.408C458.377 479.992 458.425 479.576 458.521 479.16C458.617 478.728 458.769 478.344 458.977 478.008C459.361 477.352 459.857 476.912 460.465 476.688C461.089 476.448 461.761 476.328 462.481 476.328C463.153 476.328 463.713 476.408 464.161 476.568C464.625 476.728 464.993 476.928 465.265 477.168C465.761 477.584 466.073 478.08 466.201 478.656C466.345 479.232 466.417 479.824 466.417 480.432V486.48C466.417 486.928 466.457 487.208 466.537 487.32C466.617 487.432 466.721 487.496 466.849 487.512C466.977 487.528 467.129 487.52 467.305 487.488V489C467.193 489.016 467.041 489.032 466.849 489.048C466.657 489.08 466.473 489.096 466.297 489.096C466.137 489.096 465.961 489.08 465.769 489.048C465.593 489.016 465.409 488.928 465.217 488.784C465.041 488.656 464.913 488.52 464.833 488.376C464.769 488.232 464.729 488.096 464.713 487.968C464.249 488.576 463.713 488.976 463.105 489.168C462.513 489.376 461.921 489.48 461.329 489.48C461.105 489.48 460.873 489.464 460.633 489.432C460.393 489.4 460.153 489.328 459.913 489.216C459.673 489.12 459.441 488.984 459.217 488.808C459.009 488.616 458.809 488.376 458.617 488.088C458.393 487.72 458.241 487.352 458.161 486.984C458.097 486.616 458.065 486.224 458.065 485.808C458.065 485.28 458.153 484.752 458.329 484.224C458.505 483.696 458.873 483.248 459.433 482.88C459.705 482.704 460.025 482.552 460.393 482.424C460.777 482.28 461.233 482.168 461.761 482.088C462.065 482.04 462.385 482 462.721 481.968C463.073 481.92 463.385 481.864 463.657 481.8C463.769 481.768 463.881 481.728 463.993 481.68C464.105 481.632 464.201 481.544 464.281 481.416C464.329 481.336 464.361 481.224 464.377 481.08C464.393 480.936 464.401 480.704 464.401 480.384C464.401 480.24 464.393 480.08 464.377 479.904C464.377 479.728 464.361 479.544 464.329 479.352C464.297 479.16 464.241 478.976 464.161 478.8C464.097 478.608 463.993 478.44 463.849 478.296C463.641 478.072 463.417 477.936 463.177 477.888C462.953 477.84 462.721 477.816 462.481 477.816C462.257 477.816 462.017 477.84 461.761 477.888C461.505 477.936 461.265 478.072 461.041 478.296C460.737 478.568 460.537 478.912 460.441 479.328C460.361 479.728 460.329 480.088 460.345 480.408H458.377ZM464.401 483.072C464.177 483.136 463.985 483.176 463.825 483.192C463.665 483.208 463.497 483.232 463.321 483.264C462.953 483.312 462.625 483.36 462.337 483.408C462.065 483.44 461.801 483.496 461.545 483.576C461.225 483.688 460.969 483.84 460.777 484.032C460.601 484.208 460.465 484.4 460.369 484.608C460.273 484.816 460.209 485.04 460.177 485.28C460.161 485.504 460.153 485.72 460.153 485.928C460.153 486.168 460.169 486.424 460.201 486.696C460.233 486.952 460.337 487.192 460.513 487.416C460.689 487.64 460.881 487.792 461.089 487.872C461.313 487.952 461.513 487.992 461.689 487.992C462.089 487.992 462.481 487.904 462.865 487.728C463.249 487.536 463.561 487.272 463.801 486.936C464.105 486.52 464.281 486.032 464.329 485.472C464.377 484.912 464.401 484.36 464.401 483.816V483.072ZM470.908 476.808V480.552C470.908 480.888 470.916 481.184 470.932 481.44C470.964 481.68 471.036 481.888 471.148 482.064C471.324 482.32 471.556 482.464 471.844 482.496C472.148 482.528 472.468 482.544 472.804 482.544C472.996 482.544 473.212 482.536 473.452 482.52C473.708 482.504 474.028 482.488 474.412 482.472V476.808H476.428V489H474.412V483.96C473.916 483.976 473.524 483.992 473.236 484.008C472.964 484.024 472.708 484.032 472.468 484.032C471.796 484.032 471.284 483.992 470.932 483.912C470.58 483.832 470.332 483.752 470.188 483.672C469.868 483.528 469.62 483.344 469.444 483.12C469.268 482.896 469.14 482.664 469.06 482.424C469.012 482.264 468.972 482.072 468.94 481.848C468.908 481.608 468.892 481.288 468.892 480.888V476.808H470.908ZM481.422 489H479.406V476.808H481.422V481.824H485.598V476.808H487.614V489H485.598V483.312H481.422V489ZM497.042 476.808H499.226V489H497.21V480.744L497.306 479.448H497.258L496.874 480.6L492.77 489H490.586V476.808H492.602V485.04L492.506 486.36H492.554L492.938 485.184L497.042 476.808ZM500.915 478.296V476.808H509.363V478.296H506.147V489H504.131V478.296H500.915ZM519.194 485.472C519.162 485.904 519.066 486.352 518.906 486.816C518.746 487.264 518.514 487.672 518.21 488.04C517.714 488.648 517.162 489.04 516.554 489.216C515.946 489.392 515.354 489.48 514.778 489.48C514.474 489.48 514.17 489.456 513.866 489.408C513.562 489.376 513.258 489.296 512.954 489.168C512.666 489.04 512.378 488.864 512.09 488.64C511.802 488.416 511.53 488.12 511.274 487.752C511.002 487.368 510.786 486.968 510.626 486.552C510.466 486.136 510.338 485.72 510.242 485.304C510.162 484.872 510.106 484.456 510.074 484.056C510.058 483.656 510.05 483.288 510.05 482.952C510.05 482.712 510.058 482.392 510.074 481.992C510.106 481.576 510.162 481.136 510.242 480.672C510.338 480.208 510.466 479.744 510.626 479.28C510.786 478.8 511.01 478.368 511.298 477.984C511.81 477.312 512.378 476.872 513.002 476.664C513.642 476.44 514.25 476.328 514.826 476.328C515.546 476.328 516.21 476.472 516.818 476.76C517.426 477.048 517.946 477.576 518.378 478.344C518.458 478.488 518.546 478.688 518.642 478.944C518.754 479.184 518.858 479.504 518.954 479.904C519.05 480.304 519.13 480.792 519.194 481.368C519.258 481.944 519.29 482.616 519.29 483.384H512.162C512.146 483.96 512.202 484.576 512.33 485.232C512.474 485.888 512.706 486.448 513.026 486.912C513.25 487.264 513.514 487.536 513.818 487.728C514.122 487.904 514.482 487.992 514.898 487.992C515.266 487.992 515.61 487.912 515.93 487.752C516.25 487.592 516.538 487.312 516.794 486.912C516.922 486.704 517.018 486.48 517.082 486.24C517.162 485.984 517.218 485.728 517.25 485.472H519.194ZM517.178 481.896C517.178 481.416 517.13 480.904 517.034 480.36C516.938 479.8 516.802 479.336 516.626 478.968C516.434 478.584 516.202 478.296 515.93 478.104C515.658 477.912 515.29 477.816 514.826 477.816C514.474 477.816 514.13 477.888 513.794 478.032C513.474 478.16 513.178 478.424 512.906 478.824C512.65 479.192 512.458 479.672 512.33 480.264C512.218 480.84 512.162 481.384 512.162 481.896H517.178ZM535.784 484.656C535.768 485.072 535.704 485.56 535.592 486.12C535.48 486.664 535.272 487.176 534.968 487.656C534.52 488.376 534.008 488.856 533.432 489.096C532.856 489.352 532.224 489.48 531.536 489.48C530.864 489.48 530.232 489.368 529.64 489.144C529.048 488.936 528.504 488.48 528.008 487.776C527.784 487.44 527.592 487.072 527.432 486.672C527.288 486.256 527.168 485.832 527.072 485.4C526.976 484.952 526.904 484.512 526.856 484.08C526.824 483.632 526.808 483.208 526.808 482.808C526.808 482.552 526.816 482.224 526.832 481.824C526.864 481.408 526.92 480.976 527 480.528C527.096 480.08 527.224 479.632 527.384 479.184C527.56 478.72 527.792 478.296 528.08 477.912C528.592 477.256 529.136 476.832 529.712 476.64C530.304 476.432 530.88 476.328 531.44 476.328C532.048 476.328 532.624 476.416 533.168 476.592C533.728 476.768 534.248 477.16 534.728 477.768C535.032 478.136 535.272 478.568 535.448 479.064C535.624 479.544 535.712 480.064 535.712 480.624H533.768C533.752 480.32 533.704 480.008 533.624 479.688C533.544 479.352 533.416 479.048 533.24 478.776C533 478.408 532.72 478.16 532.4 478.032C532.096 477.888 531.784 477.816 531.464 477.816C530.6 477.816 529.944 478.28 529.496 479.208C529.368 479.464 529.264 479.76 529.184 480.096C529.12 480.416 529.064 480.744 529.016 481.08C528.984 481.416 528.96 481.736 528.944 482.04C528.928 482.344 528.92 482.6 528.92 482.808C528.92 483.256 528.952 483.808 529.016 484.464C529.096 485.104 529.248 485.712 529.472 486.288C529.744 486.944 530.064 487.392 530.432 487.632C530.8 487.872 531.184 487.992 531.584 487.992C531.856 487.992 532.168 487.904 532.52 487.728C532.888 487.552 533.192 487.208 533.432 486.696C533.528 486.504 533.6 486.304 533.648 486.096C533.696 485.872 533.736 485.664 533.768 485.472C533.8 485.28 533.816 485.112 533.816 484.968C533.832 484.824 533.84 484.72 533.84 484.656H535.784ZM543.592 476.808H545.824L541.624 482.472L546.04 489H543.808L540.016 483.216V489H538V476.808H540.016V481.872L543.592 476.808ZM549.529 476.808V478.056H549.577C549.657 477.88 549.745 477.728 549.841 477.6C549.937 477.456 550.049 477.32 550.177 477.192C550.401 476.968 550.697 476.768 551.065 476.592C551.433 476.416 551.889 476.328 552.433 476.328C553.137 476.328 553.745 476.472 554.257 476.76C554.785 477.032 555.233 477.432 555.601 477.96C555.889 478.36 556.113 478.792 556.273 479.256C556.433 479.704 556.553 480.152 556.633 480.6C556.729 481.048 556.785 481.472 556.801 481.872C556.817 482.272 556.825 482.616 556.825 482.904C556.825 483.64 556.753 484.424 556.609 485.256C556.465 486.072 556.193 486.824 555.793 487.512C555.025 488.824 553.913 489.48 552.457 489.48C551.993 489.48 551.569 489.4 551.185 489.24C550.801 489.096 550.473 488.904 550.201 488.664C550.073 488.552 549.961 488.44 549.865 488.328C549.785 488.216 549.705 488.096 549.625 487.968V493.44H547.609V476.808H549.529ZM549.529 482.952C549.529 483.416 549.545 483.92 549.577 484.464C549.625 485.008 549.761 485.56 549.985 486.12C550.161 486.568 550.361 486.92 550.585 487.176C550.809 487.416 551.025 487.6 551.233 487.728C551.457 487.84 551.649 487.912 551.809 487.944C551.985 487.976 552.105 487.992 552.169 487.992C552.281 487.992 552.425 487.976 552.601 487.944C552.793 487.912 552.985 487.84 553.177 487.728C553.369 487.6 553.561 487.424 553.753 487.2C553.945 486.96 554.113 486.648 554.257 486.264C554.321 486.088 554.409 485.744 554.521 485.232C554.649 484.704 554.713 483.928 554.713 482.904C554.713 481.32 554.505 480.104 554.089 479.256C553.785 478.632 553.441 478.24 553.057 478.08C552.689 477.904 552.361 477.816 552.073 477.816C551.753 477.816 551.417 477.92 551.065 478.128C550.713 478.336 550.401 478.728 550.129 479.304C549.857 479.864 549.689 480.448 549.625 481.056C549.561 481.648 549.529 482.28 549.529 482.952ZM558.753 482.88C558.753 482.528 558.777 482.12 558.825 481.656C558.873 481.192 558.953 480.72 559.065 480.24C559.193 479.76 559.353 479.296 559.545 478.848C559.753 478.384 560.009 477.984 560.313 477.648C560.761 477.152 561.257 476.808 561.801 476.616C562.345 476.424 562.913 476.328 563.505 476.328C564.097 476.328 564.665 476.424 565.209 476.616C565.753 476.808 566.249 477.152 566.697 477.648C567.001 477.984 567.249 478.384 567.441 478.848C567.649 479.296 567.809 479.76 567.921 480.24C568.049 480.72 568.137 481.192 568.185 481.656C568.233 482.12 568.257 482.528 568.257 482.88C568.257 483.248 568.233 483.664 568.185 484.128C568.137 484.592 568.049 485.064 567.921 485.544C567.809 486.024 567.649 486.488 567.441 486.936C567.249 487.384 567.001 487.784 566.697 488.136C566.233 488.648 565.737 489 565.209 489.192C564.681 489.384 564.113 489.48 563.505 489.48C562.897 489.48 562.329 489.384 561.801 489.192C561.273 489 560.777 488.648 560.313 488.136C560.009 487.784 559.753 487.384 559.545 486.936C559.353 486.488 559.193 486.024 559.065 485.544C558.953 485.064 558.873 484.592 558.825 484.128C558.777 483.664 558.753 483.248 558.753 482.88ZM560.865 482.88C560.865 483.68 560.913 484.368 561.009 484.944C561.121 485.504 561.281 486.016 561.489 486.48C561.681 486.896 561.929 487.256 562.233 487.56C562.537 487.848 562.961 487.992 563.505 487.992C564.049 487.992 564.473 487.848 564.777 487.56C565.081 487.256 565.329 486.896 565.521 486.48C565.729 486.016 565.881 485.504 565.977 484.944C566.089 484.368 566.145 483.68 566.145 482.88C566.145 482.208 566.097 481.576 566.001 480.984C565.921 480.392 565.761 479.832 565.521 479.304C565.313 478.856 565.057 478.496 564.753 478.224C564.465 477.952 564.049 477.816 563.505 477.816C562.961 477.816 562.537 477.952 562.233 478.224C561.945 478.496 561.697 478.856 561.489 479.304C561.249 479.832 561.081 480.392 560.985 480.984C560.905 481.576 560.865 482.208 560.865 482.88ZM578.141 476.808V489H576.149V478.296H573.221V481.392C573.221 482.432 573.189 483.416 573.125 484.344C573.077 485.272 572.941 486.088 572.717 486.792C572.509 487.496 572.197 488.056 571.781 488.472C571.365 488.888 570.797 489.096 570.077 489.096C569.917 489.096 569.749 489.088 569.573 489.072C569.413 489.056 569.245 489.024 569.069 488.976V487.44C569.629 487.584 570.061 487.504 570.365 487.2C570.669 486.896 570.885 486.456 571.013 485.88C571.157 485.288 571.237 484.6 571.253 483.816C571.285 483.032 571.301 482.224 571.301 481.392V476.808H578.141ZM589.039 476.808V489H587.047V478.296H584.119V481.392C584.119 482.432 584.087 483.416 584.023 484.344C583.975 485.272 583.839 486.088 583.615 486.792C583.407 487.496 583.095 488.056 582.679 488.472C582.263 488.888 581.695 489.096 580.975 489.096C580.815 489.096 580.647 489.088 580.471 489.072C580.311 489.056 580.143 489.024 579.967 488.976V487.44C580.527 487.584 580.959 487.504 581.263 487.2C581.567 486.896 581.783 486.456 581.911 485.88C582.055 485.288 582.135 484.6 582.151 483.816C582.183 483.032 582.199 482.224 582.199 481.392V476.808H589.039ZM598.479 476.808H600.663V489H598.647V480.744L598.743 479.448H598.695L598.311 480.6L594.207 489H592.023V476.808H594.039V485.04L593.943 486.36H593.991L594.375 485.184L598.479 476.808ZM602.352 478.296V476.808H610.8V478.296H607.584V489H605.568V478.296H602.352ZM614.149 476.808V481.632H616.381C616.781 481.632 617.197 481.664 617.629 481.728C618.061 481.792 618.477 481.96 618.877 482.232C619.181 482.456 619.421 482.704 619.597 482.976C619.789 483.248 619.925 483.528 620.005 483.816C620.085 484.104 620.133 484.384 620.149 484.656C620.181 484.912 620.197 485.144 620.197 485.352C620.197 485.816 620.149 486.224 620.053 486.576C619.973 486.912 619.861 487.2 619.717 487.44C619.589 487.68 619.445 487.88 619.285 488.04C619.141 488.184 619.005 488.304 618.877 488.4C618.557 488.624 618.197 488.784 617.797 488.88C617.397 488.96 616.997 489 616.597 489H612.133V476.808H614.149ZM614.149 487.512H615.901C616.077 487.512 616.309 487.496 616.597 487.464C616.885 487.432 617.157 487.304 617.413 487.08C617.541 486.952 617.685 486.752 617.845 486.48C618.005 486.192 618.085 485.768 618.085 485.208C618.085 484.856 618.037 484.544 617.941 484.272C617.861 484 617.701 483.76 617.461 483.552C617.221 483.344 616.981 483.224 616.741 483.192C616.501 483.144 616.237 483.12 615.949 483.12H614.149V487.512ZM634.456 476.808H636.64V489H634.624V480.744L634.72 479.448H634.672L634.288 480.6L630.184 489H628V476.808H630.016V485.04L629.92 486.36H629.968L630.352 485.184L634.456 476.808ZM647.242 489H645.226V476.808H653.53V489H651.514V478.296H647.242V489ZM665.116 485.472C665.084 485.904 664.988 486.352 664.828 486.816C664.668 487.264 664.436 487.672 664.132 488.04C663.636 488.648 663.084 489.04 662.476 489.216C661.868 489.392 661.276 489.48 660.7 489.48C660.396 489.48 660.092 489.456 659.788 489.408C659.484 489.376 659.18 489.296 658.876 489.168C658.588 489.04 658.3 488.864 658.012 488.64C657.724 488.416 657.452 488.12 657.196 487.752C656.924 487.368 656.708 486.968 656.548 486.552C656.388 486.136 656.26 485.72 656.164 485.304C656.084 484.872 656.028 484.456 655.996 484.056C655.98 483.656 655.972 483.288 655.972 482.952C655.972 482.712 655.98 482.392 655.996 481.992C656.028 481.576 656.084 481.136 656.164 480.672C656.26 480.208 656.388 479.744 656.548 479.28C656.708 478.8 656.932 478.368 657.22 477.984C657.732 477.312 658.3 476.872 658.924 476.664C659.564 476.44 660.172 476.328 660.748 476.328C661.468 476.328 662.132 476.472 662.74 476.76C663.348 477.048 663.868 477.576 664.3 478.344C664.38 478.488 664.468 478.688 664.564 478.944C664.676 479.184 664.78 479.504 664.876 479.904C664.972 480.304 665.052 480.792 665.116 481.368C665.18 481.944 665.212 482.616 665.212 483.384H658.084C658.068 483.96 658.124 484.576 658.252 485.232C658.396 485.888 658.628 486.448 658.948 486.912C659.172 487.264 659.436 487.536 659.74 487.728C660.044 487.904 660.404 487.992 660.82 487.992C661.188 487.992 661.532 487.912 661.852 487.752C662.172 487.592 662.46 487.312 662.716 486.912C662.844 486.704 662.94 486.48 663.004 486.24C663.084 485.984 663.14 485.728 663.172 485.472H665.116ZM663.1 481.896C663.1 481.416 663.052 480.904 662.956 480.36C662.86 479.8 662.724 479.336 662.548 478.968C662.356 478.584 662.124 478.296 661.852 478.104C661.58 477.912 661.212 477.816 660.748 477.816C660.396 477.816 660.052 477.888 659.716 478.032C659.396 478.16 659.1 478.424 658.828 478.824C658.572 479.192 658.38 479.672 658.252 480.264C658.14 480.84 658.084 481.384 658.084 481.896H663.1ZM669.576 476.808V478.056H669.624C669.704 477.88 669.792 477.728 669.888 477.6C669.984 477.456 670.096 477.32 670.224 477.192C670.448 476.968 670.744 476.768 671.112 476.592C671.48 476.416 671.936 476.328 672.48 476.328C673.184 476.328 673.792 476.472 674.304 476.76C674.832 477.032 675.28 477.432 675.648 477.96C675.936 478.36 676.16 478.792 676.32 479.256C676.48 479.704 676.6 480.152 676.68 480.6C676.776 481.048 676.832 481.472 676.848 481.872C676.864 482.272 676.872 482.616 676.872 482.904C676.872 483.64 676.8 484.424 676.656 485.256C676.512 486.072 676.24 486.824 675.84 487.512C675.072 488.824 673.96 489.48 672.504 489.48C672.04 489.48 671.616 489.4 671.232 489.24C670.848 489.096 670.52 488.904 670.248 488.664C670.12 488.552 670.008 488.44 669.912 488.328C669.832 488.216 669.752 488.096 669.672 487.968V493.44H667.656V476.808H669.576ZM669.576 482.952C669.576 483.416 669.592 483.92 669.624 484.464C669.672 485.008 669.808 485.56 670.032 486.12C670.208 486.568 670.408 486.92 670.632 487.176C670.856 487.416 671.072 487.6 671.28 487.728C671.504 487.84 671.696 487.912 671.856 487.944C672.032 487.976 672.152 487.992 672.216 487.992C672.328 487.992 672.472 487.976 672.648 487.944C672.84 487.912 673.032 487.84 673.224 487.728C673.416 487.6 673.608 487.424 673.8 487.2C673.992 486.96 674.16 486.648 674.304 486.264C674.368 486.088 674.456 485.744 674.568 485.232C674.696 484.704 674.76 483.928 674.76 482.904C674.76 481.32 674.552 480.104 674.136 479.256C673.832 478.632 673.488 478.24 673.104 478.08C672.736 477.904 672.408 477.816 672.12 477.816C671.8 477.816 671.464 477.92 671.112 478.128C670.76 478.336 670.448 478.728 670.176 479.304C669.904 479.864 669.736 480.448 669.672 481.056C669.608 481.648 669.576 482.28 669.576 482.952ZM687.944 485.472C687.912 485.904 687.816 486.352 687.656 486.816C687.496 487.264 687.264 487.672 686.96 488.04C686.464 488.648 685.912 489.04 685.304 489.216C684.696 489.392 684.104 489.48 683.528 489.48C683.224 489.48 682.92 489.456 682.616 489.408C682.312 489.376 682.008 489.296 681.704 489.168C681.416 489.04 681.128 488.864 680.84 488.64C680.552 488.416 680.28 488.12 680.024 487.752C679.752 487.368 679.536 486.968 679.376 486.552C679.216 486.136 679.088 485.72 678.992 485.304C678.912 484.872 678.856 484.456 678.824 484.056C678.808 483.656 678.8 483.288 678.8 482.952C678.8 482.712 678.808 482.392 678.824 481.992C678.856 481.576 678.912 481.136 678.992 480.672C679.088 480.208 679.216 479.744 679.376 479.28C679.536 478.8 679.76 478.368 680.048 477.984C680.56 477.312 681.128 476.872 681.752 476.664C682.392 476.44 683 476.328 683.576 476.328C684.296 476.328 684.96 476.472 685.568 476.76C686.176 477.048 686.696 477.576 687.128 478.344C687.208 478.488 687.296 478.688 687.392 478.944C687.504 479.184 687.608 479.504 687.704 479.904C687.8 480.304 687.88 480.792 687.944 481.368C688.008 481.944 688.04 482.616 688.04 483.384H680.912C680.896 483.96 680.952 484.576 681.08 485.232C681.224 485.888 681.456 486.448 681.776 486.912C682 487.264 682.264 487.536 682.568 487.728C682.872 487.904 683.232 487.992 683.648 487.992C684.016 487.992 684.36 487.912 684.68 487.752C685 487.592 685.288 487.312 685.544 486.912C685.672 486.704 685.768 486.48 685.832 486.24C685.912 485.984 685.968 485.728 686 485.472H687.944ZM685.928 481.896C685.928 481.416 685.88 480.904 685.784 480.36C685.688 479.8 685.552 479.336 685.376 478.968C685.184 478.584 684.952 478.296 684.68 478.104C684.408 477.912 684.04 477.816 683.576 477.816C683.224 477.816 682.88 477.888 682.544 478.032C682.224 478.16 681.928 478.424 681.656 478.824C681.4 479.192 681.208 479.672 681.08 480.264C680.968 480.84 680.912 481.384 680.912 481.896H685.928ZM692.5 480.384H692.428L692.5 481.392V489H690.484V476.808H693.076L696.052 486.096L699.028 476.808H701.62V489H699.604V481.392L699.676 480.384H699.604L696.868 489H695.236L692.5 480.384ZM713.209 485.472C713.177 485.904 713.081 486.352 712.921 486.816C712.761 487.264 712.529 487.672 712.225 488.04C711.729 488.648 711.177 489.04 710.569 489.216C709.961 489.392 709.369 489.48 708.793 489.48C708.489 489.48 708.185 489.456 707.881 489.408C707.577 489.376 707.273 489.296 706.969 489.168C706.681 489.04 706.393 488.864 706.105 488.64C705.817 488.416 705.545 488.12 705.289 487.752C705.017 487.368 704.801 486.968 704.641 486.552C704.481 486.136 704.353 485.72 704.257 485.304C704.177 484.872 704.121 484.456 704.089 484.056C704.073 483.656 704.065 483.288 704.065 482.952C704.065 482.712 704.073 482.392 704.089 481.992C704.121 481.576 704.177 481.136 704.257 480.672C704.353 480.208 704.481 479.744 704.641 479.28C704.801 478.8 705.025 478.368 705.313 477.984C705.825 477.312 706.393 476.872 707.017 476.664C707.657 476.44 708.265 476.328 708.841 476.328C709.561 476.328 710.225 476.472 710.833 476.76C711.441 477.048 711.961 477.576 712.393 478.344C712.473 478.488 712.561 478.688 712.657 478.944C712.769 479.184 712.873 479.504 712.969 479.904C713.065 480.304 713.145 480.792 713.209 481.368C713.273 481.944 713.305 482.616 713.305 483.384H706.177C706.161 483.96 706.217 484.576 706.345 485.232C706.489 485.888 706.721 486.448 707.041 486.912C707.265 487.264 707.529 487.536 707.833 487.728C708.137 487.904 708.497 487.992 708.913 487.992C709.281 487.992 709.625 487.912 709.945 487.752C710.265 487.592 710.553 487.312 710.809 486.912C710.937 486.704 711.033 486.48 711.097 486.24C711.177 485.984 711.233 485.728 711.265 485.472H713.209ZM711.193 481.896C711.193 481.416 711.145 480.904 711.049 480.36C710.953 479.8 710.817 479.336 710.641 478.968C710.449 478.584 710.217 478.296 709.945 478.104C709.673 477.912 709.305 477.816 708.841 477.816C708.489 477.816 708.145 477.888 707.809 478.032C707.489 478.16 707.193 478.424 706.921 478.824C706.665 479.192 706.473 479.672 706.345 480.264C706.233 480.84 706.177 481.384 706.177 481.896H711.193ZM721.222 487.512V476.808H723.238V487.512H726.694V476.808H728.71V487.512H730.294L730.174 492.168H728.398V489H715.75V476.808H717.766V487.512H721.222ZM731.987 480.408C731.987 479.992 732.035 479.576 732.131 479.16C732.227 478.728 732.379 478.344 732.587 478.008C732.971 477.352 733.467 476.912 734.075 476.688C734.699 476.448 735.371 476.328 736.091 476.328C736.763 476.328 737.323 476.408 737.771 476.568C738.235 476.728 738.603 476.928 738.875 477.168C739.371 477.584 739.683 478.08 739.811 478.656C739.955 479.232 740.027 479.824 740.027 480.432V486.48C740.027 486.928 740.067 487.208 740.147 487.32C740.227 487.432 740.331 487.496 740.459 487.512C740.587 487.528 740.739 487.52 740.915 487.488V489C740.803 489.016 740.651 489.032 740.459 489.048C740.267 489.08 740.083 489.096 739.907 489.096C739.747 489.096 739.571 489.08 739.379 489.048C739.203 489.016 739.019 488.928 738.827 488.784C738.651 488.656 738.523 488.52 738.443 488.376C738.379 488.232 738.339 488.096 738.323 487.968C737.859 488.576 737.323 488.976 736.715 489.168C736.123 489.376 735.531 489.48 734.939 489.48C734.715 489.48 734.483 489.464 734.243 489.432C734.003 489.4 733.763 489.328 733.523 489.216C733.283 489.12 733.051 488.984 732.827 488.808C732.619 488.616 732.419 488.376 732.227 488.088C732.003 487.72 731.851 487.352 731.771 486.984C731.707 486.616 731.675 486.224 731.675 485.808C731.675 485.28 731.763 484.752 731.939 484.224C732.115 483.696 732.483 483.248 733.043 482.88C733.315 482.704 733.635 482.552 734.003 482.424C734.387 482.28 734.843 482.168 735.371 482.088C735.675 482.04 735.995 482 736.331 481.968C736.683 481.92 736.995 481.864 737.267 481.8C737.379 481.768 737.491 481.728 737.603 481.68C737.715 481.632 737.811 481.544 737.891 481.416C737.939 481.336 737.971 481.224 737.987 481.08C738.003 480.936 738.011 480.704 738.011 480.384C738.011 480.24 738.003 480.08 737.987 479.904C737.987 479.728 737.971 479.544 737.939 479.352C737.907 479.16 737.851 478.976 737.771 478.8C737.707 478.608 737.603 478.44 737.459 478.296C737.251 478.072 737.027 477.936 736.787 477.888C736.563 477.84 736.331 477.816 736.091 477.816C735.867 477.816 735.627 477.84 735.371 477.888C735.115 477.936 734.875 478.072 734.651 478.296C734.347 478.568 734.147 478.912 734.051 479.328C733.971 479.728 733.939 480.088 733.955 480.408H731.987ZM738.011 483.072C737.787 483.136 737.595 483.176 737.435 483.192C737.275 483.208 737.107 483.232 736.931 483.264C736.563 483.312 736.235 483.36 735.947 483.408C735.675 483.44 735.411 483.496 735.155 483.576C734.835 483.688 734.579 483.84 734.387 484.032C734.211 484.208 734.075 484.4 733.979 484.608C733.883 484.816 733.819 485.04 733.787 485.28C733.771 485.504 733.763 485.72 733.763 485.928C733.763 486.168 733.779 486.424 733.811 486.696C733.843 486.952 733.947 487.192 734.123 487.416C734.299 487.64 734.491 487.792 734.699 487.872C734.923 487.952 735.123 487.992 735.299 487.992C735.699 487.992 736.091 487.904 736.475 487.728C736.859 487.536 737.171 487.272 737.411 486.936C737.715 486.52 737.891 486.032 737.939 485.472C737.987 484.912 738.011 484.36 738.011 483.816V483.072ZM745.766 472.2C745.766 472.376 745.782 472.584 745.814 472.824C745.846 473.048 745.918 473.248 746.03 473.424C746.222 473.744 746.446 473.936 746.702 474C746.958 474.064 747.174 474.096 747.35 474.096C747.526 474.096 747.742 474.064 747.998 474C748.254 473.936 748.478 473.744 748.67 473.424C748.782 473.248 748.854 473.048 748.886 472.824C748.918 472.584 748.934 472.376 748.934 472.2H750.662C750.63 472.904 750.494 473.464 750.254 473.88C750.014 474.296 749.718 474.624 749.366 474.864C749.014 475.088 748.67 475.232 748.334 475.296C747.998 475.344 747.67 475.368 747.35 475.368C747.03 475.368 746.702 475.344 746.366 475.296C746.03 475.232 745.686 475.088 745.334 474.864C744.982 474.624 744.686 474.296 744.446 473.88C744.206 473.464 744.07 472.904 744.038 472.2H745.766ZM749.534 476.808H751.718V489H749.702V480.744L749.798 479.448H749.75L749.366 480.6L745.262 489H743.078V476.808H745.094V485.04L744.998 486.36H745.046L745.43 485.184L749.534 476.808ZM753.407 478.296V476.808H761.855V478.296H758.639V489H756.623V478.296H753.407ZM771.686 485.472C771.654 485.904 771.558 486.352 771.398 486.816C771.238 487.264 771.006 487.672 770.702 488.04C770.206 488.648 769.654 489.04 769.046 489.216C768.438 489.392 767.846 489.48 767.27 489.48C766.966 489.48 766.662 489.456 766.358 489.408C766.054 489.376 765.75 489.296 765.446 489.168C765.158 489.04 764.87 488.864 764.582 488.64C764.294 488.416 764.022 488.12 763.766 487.752C763.494 487.368 763.278 486.968 763.118 486.552C762.958 486.136 762.83 485.72 762.734 485.304C762.654 484.872 762.598 484.456 762.566 484.056C762.55 483.656 762.542 483.288 762.542 482.952C762.542 482.712 762.55 482.392 762.566 481.992C762.598 481.576 762.654 481.136 762.734 480.672C762.83 480.208 762.958 479.744 763.118 479.28C763.278 478.8 763.502 478.368 763.79 477.984C764.302 477.312 764.87 476.872 765.494 476.664C766.134 476.44 766.742 476.328 767.318 476.328C768.038 476.328 768.702 476.472 769.31 476.76C769.918 477.048 770.438 477.576 770.87 478.344C770.95 478.488 771.038 478.688 771.134 478.944C771.246 479.184 771.35 479.504 771.446 479.904C771.542 480.304 771.622 480.792 771.686 481.368C771.75 481.944 771.782 482.616 771.782 483.384H764.654C764.638 483.96 764.694 484.576 764.822 485.232C764.966 485.888 765.198 486.448 765.518 486.912C765.742 487.264 766.006 487.536 766.31 487.728C766.614 487.904 766.974 487.992 767.39 487.992C767.758 487.992 768.102 487.912 768.422 487.752C768.742 487.592 769.03 487.312 769.286 486.912C769.414 486.704 769.51 486.48 769.574 486.24C769.654 485.984 769.71 485.728 769.742 485.472H771.686ZM769.67 481.896C769.67 481.416 769.622 480.904 769.526 480.36C769.43 479.8 769.294 479.336 769.118 478.968C768.926 478.584 768.694 478.296 768.422 478.104C768.15 477.912 767.782 477.816 767.318 477.816C766.966 477.816 766.622 477.888 766.286 478.032C765.966 478.16 765.67 478.424 765.398 478.824C765.142 479.192 764.95 479.672 764.822 480.264C764.71 480.84 764.654 481.384 764.654 481.896H769.67ZM782.674 484.656C782.658 485.072 782.594 485.56 782.482 486.12C782.37 486.664 782.162 487.176 781.858 487.656C781.41 488.376 780.898 488.856 780.322 489.096C779.746 489.352 779.114 489.48 778.426 489.48C777.754 489.48 777.122 489.368 776.53 489.144C775.938 488.936 775.394 488.48 774.898 487.776C774.674 487.44 774.482 487.072 774.322 486.672C774.178 486.256 774.058 485.832 773.962 485.4C773.866 484.952 773.794 484.512 773.746 484.08C773.714 483.632 773.698 483.208 773.698 482.808C773.698 482.552 773.706 482.224 773.722 481.824C773.754 481.408 773.81 480.976 773.89 480.528C773.986 480.08 774.114 479.632 774.274 479.184C774.45 478.72 774.682 478.296 774.97 477.912C775.482 477.256 776.026 476.832 776.602 476.64C777.194 476.432 777.77 476.328 778.33 476.328C778.938 476.328 779.514 476.416 780.058 476.592C780.618 476.768 781.138 477.16 781.618 477.768C781.922 478.136 782.162 478.568 782.338 479.064C782.514 479.544 782.602 480.064 782.602 480.624H780.658C780.642 480.32 780.594 480.008 780.514 479.688C780.434 479.352 780.306 479.048 780.13 478.776C779.89 478.408 779.61 478.16 779.29 478.032C778.986 477.888 778.674 477.816 778.354 477.816C777.49 477.816 776.834 478.28 776.386 479.208C776.258 479.464 776.154 479.76 776.074 480.096C776.01 480.416 775.954 480.744 775.906 481.08C775.874 481.416 775.85 481.736 775.834 482.04C775.818 482.344 775.81 482.6 775.81 482.808C775.81 483.256 775.842 483.808 775.906 484.464C775.986 485.104 776.138 485.712 776.362 486.288C776.634 486.944 776.954 487.392 777.322 487.632C777.69 487.872 778.074 487.992 778.474 487.992C778.746 487.992 779.058 487.904 779.41 487.728C779.778 487.552 780.082 487.208 780.322 486.696C780.418 486.504 780.49 486.304 780.538 486.096C780.586 485.872 780.626 485.664 780.658 485.472C780.69 485.28 780.706 485.112 780.706 484.968C780.722 484.824 780.73 484.72 780.73 484.656H782.674ZM786.906 476.808V481.632H789.138C789.538 481.632 789.954 481.664 790.386 481.728C790.818 481.792 791.234 481.96 791.634 482.232C791.938 482.456 792.178 482.704 792.354 482.976C792.546 483.248 792.682 483.528 792.762 483.816C792.842 484.104 792.89 484.384 792.906 484.656C792.938 484.912 792.954 485.144 792.954 485.352C792.954 485.816 792.906 486.224 792.81 486.576C792.73 486.912 792.618 487.2 792.474 487.44C792.346 487.68 792.202 487.88 792.042 488.04C791.898 488.184 791.762 488.304 791.634 488.4C791.314 488.624 790.954 488.784 790.554 488.88C790.154 488.96 789.754 489 789.354 489H784.89V476.808H786.906ZM786.906 487.512H788.658C788.834 487.512 789.066 487.496 789.354 487.464C789.642 487.432 789.914 487.304 790.17 487.08C790.298 486.952 790.442 486.752 790.602 486.48C790.762 486.192 790.842 485.768 790.842 485.208C790.842 484.856 790.794 484.544 790.698 484.272C790.618 484 790.458 483.76 790.218 483.552C789.978 483.344 789.738 483.224 789.498 483.192C789.258 483.144 788.994 483.12 788.706 483.12H786.906V487.512ZM802.774 489H800.758V476.808H809.062V489H807.046V478.296H802.774V489ZM811.503 482.88C811.503 482.528 811.527 482.12 811.575 481.656C811.623 481.192 811.703 480.72 811.815 480.24C811.943 479.76 812.103 479.296 812.295 478.848C812.503 478.384 812.759 477.984 813.063 477.648C813.511 477.152 814.007 476.808 814.551 476.616C815.095 476.424 815.663 476.328 816.255 476.328C816.847 476.328 817.415 476.424 817.959 476.616C818.503 476.808 818.999 477.152 819.447 477.648C819.751 477.984 819.999 478.384 820.191 478.848C820.399 479.296 820.559 479.76 820.671 480.24C820.799 480.72 820.887 481.192 820.935 481.656C820.983 482.12 821.007 482.528 821.007 482.88C821.007 483.248 820.983 483.664 820.935 484.128C820.887 484.592 820.799 485.064 820.671 485.544C820.559 486.024 820.399 486.488 820.191 486.936C819.999 487.384 819.751 487.784 819.447 488.136C818.983 488.648 818.487 489 817.959 489.192C817.431 489.384 816.863 489.48 816.255 489.48C815.647 489.48 815.079 489.384 814.551 489.192C814.023 489 813.527 488.648 813.063 488.136C812.759 487.784 812.503 487.384 812.295 486.936C812.103 486.488 811.943 486.024 811.815 485.544C811.703 485.064 811.623 484.592 811.575 484.128C811.527 483.664 811.503 483.248 811.503 482.88ZM813.615 482.88C813.615 483.68 813.663 484.368 813.759 484.944C813.871 485.504 814.031 486.016 814.239 486.48C814.431 486.896 814.679 487.256 814.983 487.56C815.287 487.848 815.711 487.992 816.255 487.992C816.799 487.992 817.223 487.848 817.527 487.56C817.831 487.256 818.079 486.896 818.271 486.48C818.479 486.016 818.631 485.504 818.727 484.944C818.839 484.368 818.895 483.68 818.895 482.88C818.895 482.208 818.847 481.576 818.751 480.984C818.671 480.392 818.511 479.832 818.271 479.304C818.063 478.856 817.807 478.496 817.503 478.224C817.215 477.952 816.799 477.816 816.255 477.816C815.711 477.816 815.287 477.952 814.983 478.224C814.695 478.496 814.447 478.856 814.239 479.304C813.999 479.832 813.831 480.392 813.735 480.984C813.655 481.576 813.615 482.208 813.615 482.88ZM831.063 480.384H830.991L831.063 481.392V489H829.047V476.808H831.639L834.615 486.096L837.591 476.808H840.183V489H838.167V481.392L838.239 480.384H838.167L835.431 489H833.799L831.063 480.384ZM849.612 476.808H851.796V489H849.78V480.744L849.876 479.448H849.828L849.444 480.6L845.34 489H843.156V476.808H845.172V485.04L845.076 486.36H845.124L845.508 485.184L849.612 476.808ZM856.701 476.808V478.056H856.749C856.829 477.88 856.917 477.728 857.013 477.6C857.109 477.456 857.221 477.32 857.349 477.192C857.573 476.968 857.869 476.768 858.237 476.592C858.605 476.416 859.061 476.328 859.605 476.328C860.309 476.328 860.917 476.472 861.429 476.76C861.957 477.032 862.405 477.432 862.773 477.96C863.061 478.36 863.285 478.792 863.445 479.256C863.605 479.704 863.725 480.152 863.805 480.6C863.901 481.048 863.957 481.472 863.973 481.872C863.989 482.272 863.997 482.616 863.997 482.904C863.997 483.64 863.925 484.424 863.781 485.256C863.637 486.072 863.365 486.824 862.965 487.512C862.197 488.824 861.085 489.48 859.629 489.48C859.165 489.48 858.741 489.4 858.357 489.24C857.973 489.096 857.645 488.904 857.373 488.664C857.245 488.552 857.133 488.44 857.037 488.328C856.957 488.216 856.877 488.096 856.797 487.968V493.44H854.781V476.808H856.701ZM856.701 482.952C856.701 483.416 856.717 483.92 856.749 484.464C856.797 485.008 856.933 485.56 857.157 486.12C857.333 486.568 857.533 486.92 857.757 487.176C857.981 487.416 858.197 487.6 858.405 487.728C858.629 487.84 858.821 487.912 858.981 487.944C859.157 487.976 859.277 487.992 859.341 487.992C859.453 487.992 859.597 487.976 859.773 487.944C859.965 487.912 860.157 487.84 860.349 487.728C860.541 487.6 860.733 487.424 860.925 487.2C861.117 486.96 861.285 486.648 861.429 486.264C861.493 486.088 861.581 485.744 861.693 485.232C861.821 484.704 861.885 483.928 861.885 482.904C861.885 481.32 861.677 480.104 861.261 479.256C860.957 478.632 860.613 478.24 860.229 478.08C859.861 477.904 859.533 477.816 859.245 477.816C858.925 477.816 858.589 477.92 858.237 478.128C857.885 478.336 857.573 478.728 857.301 479.304C857.029 479.864 856.861 480.448 856.797 481.056C856.733 481.648 856.701 482.28 856.701 482.952ZM866.237 480.408C866.237 479.992 866.285 479.576 866.381 479.16C866.477 478.728 866.629 478.344 866.837 478.008C867.221 477.352 867.717 476.912 868.325 476.688C868.949 476.448 869.621 476.328 870.341 476.328C871.013 476.328 871.573 476.408 872.021 476.568C872.485 476.728 872.853 476.928 873.125 477.168C873.621 477.584 873.933 478.08 874.061 478.656C874.205 479.232 874.277 479.824 874.277 480.432V486.48C874.277 486.928 874.317 487.208 874.397 487.32C874.477 487.432 874.581 487.496 874.709 487.512C874.837 487.528 874.989 487.52 875.165 487.488V489C875.053 489.016 874.901 489.032 874.709 489.048C874.517 489.08 874.333 489.096 874.157 489.096C873.997 489.096 873.821 489.08 873.629 489.048C873.453 489.016 873.269 488.928 873.077 488.784C872.901 488.656 872.773 488.52 872.693 488.376C872.629 488.232 872.589 488.096 872.573 487.968C872.109 488.576 871.573 488.976 870.965 489.168C870.373 489.376 869.781 489.48 869.189 489.48C868.965 489.48 868.733 489.464 868.493 489.432C868.253 489.4 868.013 489.328 867.773 489.216C867.533 489.12 867.301 488.984 867.077 488.808C866.869 488.616 866.669 488.376 866.477 488.088C866.253 487.72 866.101 487.352 866.021 486.984C865.957 486.616 865.925 486.224 865.925 485.808C865.925 485.28 866.013 484.752 866.189 484.224C866.365 483.696 866.733 483.248 867.293 482.88C867.565 482.704 867.885 482.552 868.253 482.424C868.637 482.28 869.093 482.168 869.621 482.088C869.925 482.04 870.245 482 870.581 481.968C870.933 481.92 871.245 481.864 871.517 481.8C871.629 481.768 871.741 481.728 871.853 481.68C871.965 481.632 872.061 481.544 872.141 481.416C872.189 481.336 872.221 481.224 872.237 481.08C872.253 480.936 872.261 480.704 872.261 480.384C872.261 480.24 872.253 480.08 872.237 479.904C872.237 479.728 872.221 479.544 872.189 479.352C872.157 479.16 872.101 478.976 872.021 478.8C871.957 478.608 871.853 478.44 871.709 478.296C871.501 478.072 871.277 477.936 871.037 477.888C870.813 477.84 870.581 477.816 870.341 477.816C870.117 477.816 869.877 477.84 869.621 477.888C869.365 477.936 869.125 478.072 868.901 478.296C868.597 478.568 868.397 478.912 868.301 479.328C868.221 479.728 868.189 480.088 868.205 480.408H866.237ZM872.261 483.072C872.037 483.136 871.845 483.176 871.685 483.192C871.525 483.208 871.357 483.232 871.181 483.264C870.813 483.312 870.485 483.36 870.197 483.408C869.925 483.44 869.661 483.496 869.405 483.576C869.085 483.688 868.829 483.84 868.637 484.032C868.461 484.208 868.325 484.4 868.229 484.608C868.133 484.816 868.069 485.04 868.037 485.28C868.021 485.504 868.013 485.72 868.013 485.928C868.013 486.168 868.029 486.424 868.061 486.696C868.093 486.952 868.197 487.192 868.373 487.416C868.549 487.64 868.741 487.792 868.949 487.872C869.173 487.952 869.373 487.992 869.549 487.992C869.949 487.992 870.341 487.904 870.725 487.728C871.109 487.536 871.421 487.272 871.661 486.936C871.965 486.52 872.141 486.032 872.189 485.472C872.237 484.912 872.261 484.36 872.261 483.816V483.072ZM879.344 480.384H879.272L879.344 481.392V489H877.328V476.808H879.92L882.896 486.096L885.872 476.808H888.464V489H886.448V481.392L886.52 480.384H886.448L883.712 489H882.08L879.344 480.384ZM892.133 486.384H894.341V489H892.133V486.384ZM500.404 519.104C500.852 518.272 501.228 517.432 501.532 516.584C501.836 515.736 502.084 514.792 502.276 513.752C502.484 512.696 502.62 511.64 502.684 510.584C502.748 509.528 502.78 508.552 502.78 507.656V504.2H511.012V519.104H512.86L512.716 524.792H510.796V521H501.268V524.792H499.348L499.204 519.104H500.404ZM508.876 519.104V506.096H504.916V508.184C504.916 509.096 504.892 509.928 504.844 510.68C504.796 511.416 504.732 512.096 504.652 512.72C504.588 513.328 504.5 513.888 504.388 514.4C504.276 514.896 504.164 515.368 504.052 515.816C503.876 516.472 503.684 517.056 503.476 517.568C503.284 518.08 503.052 518.592 502.78 519.104H508.876ZM522.734 508.808V521H520.742V510.296H517.814V513.392C517.814 514.432 517.782 515.416 517.718 516.344C517.67 517.272 517.534 518.088 517.31 518.792C517.102 519.496 516.79 520.056 516.374 520.472C515.958 520.888 515.39 521.096 514.67 521.096C514.51 521.096 514.342 521.088 514.166 521.072C514.006 521.056 513.838 521.024 513.662 520.976V519.44C514.222 519.584 514.654 519.504 514.958 519.2C515.262 518.896 515.478 518.456 515.606 517.88C515.75 517.288 515.83 516.6 515.846 515.816C515.878 515.032 515.894 514.224 515.894 513.392V508.808H522.734ZM527.326 521H525.19L527.83 516.152C527.638 516.12 527.422 516.072 527.182 516.008C526.958 515.928 526.734 515.808 526.51 515.648C526.398 515.568 526.27 515.456 526.126 515.312C525.982 515.168 525.838 514.976 525.694 514.736C525.566 514.496 525.454 514.208 525.358 513.872C525.262 513.52 525.214 513.112 525.214 512.648C525.214 511.864 525.326 511.224 525.55 510.728C525.79 510.232 526.054 509.848 526.342 509.576C526.742 509.224 527.15 509.008 527.566 508.928C527.998 508.848 528.406 508.808 528.79 508.808H533.374V521H531.358V516.2H529.846L527.326 521ZM529.486 510.296C529.31 510.296 529.086 510.312 528.814 510.344C528.542 510.36 528.286 510.456 528.046 510.632C527.918 510.712 527.758 510.904 527.566 511.208C527.39 511.496 527.302 511.952 527.302 512.576C527.302 512.816 527.342 513.096 527.422 513.416C527.502 513.72 527.678 513.992 527.95 514.232C528.19 514.456 528.446 514.592 528.718 514.64C528.99 514.688 529.238 514.712 529.462 514.712H531.358V510.296H529.486ZM546.353 508.808C546.849 508.808 547.297 508.848 547.697 508.928C548.097 508.992 548.473 509.184 548.825 509.504C549.049 509.712 549.257 510 549.449 510.368C549.641 510.736 549.737 511.216 549.737 511.808C549.737 512.128 549.697 512.456 549.617 512.792C549.537 513.112 549.417 513.384 549.257 513.608C549.081 513.88 548.849 514.096 548.561 514.256C548.289 514.4 547.993 514.488 547.673 514.52V514.664C547.945 514.696 548.257 514.792 548.609 514.952C548.961 515.096 549.273 515.352 549.545 515.72C549.769 516.04 549.913 516.376 549.977 516.728C550.057 517.064 550.097 517.4 550.097 517.736C550.097 518.088 550.041 518.48 549.929 518.912C549.833 519.328 549.609 519.72 549.257 520.088C548.889 520.472 548.449 520.72 547.937 520.832C547.441 520.944 546.889 521 546.281 521H541.961V508.808H546.353ZM543.977 513.896H545.681C545.905 513.896 546.145 513.872 546.401 513.824C546.673 513.76 546.921 513.616 547.145 513.392C547.369 513.168 547.505 512.936 547.553 512.696C547.617 512.456 547.649 512.232 547.649 512.024C547.649 511.8 547.617 511.552 547.553 511.28C547.489 511.008 547.313 510.776 547.025 510.584C546.801 510.44 546.569 510.36 546.329 510.344C546.105 510.312 545.913 510.296 545.753 510.296H543.977V513.896ZM543.977 519.512H545.849C546.057 519.512 546.265 519.504 546.473 519.488C546.681 519.456 546.897 519.376 547.121 519.248C547.489 519.024 547.721 518.744 547.817 518.408C547.929 518.072 547.985 517.752 547.985 517.448C547.985 516.936 547.897 516.552 547.721 516.296C547.561 516.024 547.401 515.832 547.241 515.72C547.017 515.56 546.777 515.464 546.521 515.432C546.265 515.4 546.017 515.384 545.777 515.384H543.977V519.512ZM554.594 508.808V513.632H556.682C557.082 513.632 557.498 513.664 557.93 513.728C558.362 513.792 558.778 513.96 559.178 514.232C559.482 514.456 559.722 514.704 559.898 514.976C560.09 515.248 560.226 515.528 560.306 515.816C560.386 516.104 560.434 516.384 560.45 516.656C560.482 516.912 560.498 517.144 560.498 517.352C560.498 517.816 560.45 518.224 560.354 518.576C560.274 518.912 560.162 519.2 560.018 519.44C559.89 519.68 559.746 519.88 559.586 520.04C559.442 520.184 559.306 520.304 559.178 520.4C558.858 520.624 558.498 520.784 558.098 520.88C557.698 520.96 557.298 521 556.898 521H552.578V508.808H554.594ZM563.402 508.808V521H561.386V508.808H563.402ZM554.594 519.512H556.202C556.426 519.512 556.682 519.488 556.97 519.44C557.258 519.392 557.514 519.272 557.738 519.08C557.914 518.92 558.066 518.688 558.194 518.384C558.338 518.08 558.41 517.688 558.41 517.208C558.41 516.952 558.37 516.672 558.29 516.368C558.226 516.048 558.066 515.776 557.81 515.552C557.586 515.344 557.338 515.224 557.066 515.192C556.81 515.144 556.546 515.12 556.274 515.12H554.594V519.512ZM574.999 503.408C574.983 503.872 574.879 504.272 574.687 504.608C574.511 504.944 574.319 505.2 574.111 505.376C573.839 505.616 573.543 505.792 573.223 505.904C572.903 506 572.575 506.072 572.239 506.12C571.903 506.168 571.551 506.216 571.183 506.264C570.831 506.312 570.471 506.408 570.103 506.552C569.959 506.6 569.783 506.68 569.575 506.792C569.383 506.888 569.183 507.032 568.975 507.224C568.783 507.4 568.599 507.616 568.423 507.872C568.247 508.128 568.103 508.44 567.991 508.808C567.943 508.968 567.895 509.144 567.847 509.336C567.815 509.528 567.783 509.72 567.751 509.912C567.735 510.104 567.711 510.288 567.679 510.464C567.663 510.64 567.655 510.784 567.655 510.896H567.703C567.767 510.672 567.855 510.456 567.967 510.248C568.079 510.024 568.247 509.8 568.471 509.576C568.855 509.176 569.255 508.912 569.671 508.784C570.087 508.64 570.559 508.568 571.087 508.568C571.791 508.568 572.415 508.68 572.959 508.904C573.519 509.128 574.031 509.552 574.495 510.176C574.767 510.544 574.983 510.936 575.143 511.352C575.319 511.768 575.447 512.192 575.527 512.624C575.623 513.04 575.679 513.456 575.695 513.872C575.727 514.272 575.743 514.64 575.743 514.976C575.743 515.696 575.655 516.488 575.479 517.352C575.303 518.2 574.951 519 574.423 519.752C573.991 520.36 573.503 520.8 572.959 521.072C572.415 521.344 571.735 521.48 570.919 521.48C570.295 521.48 569.703 521.376 569.143 521.168C568.599 520.976 568.103 520.608 567.655 520.064C567.287 519.616 566.999 519.104 566.791 518.528C566.583 517.952 566.423 517.376 566.311 516.8C566.215 516.208 566.151 515.656 566.119 515.144C566.103 514.632 566.095 514.216 566.095 513.896C566.095 512.296 566.151 511.056 566.263 510.176C566.391 509.28 566.519 508.624 566.647 508.208C566.727 507.936 566.831 507.656 566.959 507.368C567.087 507.064 567.247 506.768 567.439 506.48C567.631 506.192 567.863 505.928 568.135 505.688C568.407 505.432 568.735 505.216 569.119 505.04C569.407 504.912 569.759 504.808 570.175 504.728C570.607 504.632 571.231 504.512 572.047 504.368C572.591 504.272 572.951 504.144 573.127 503.984C573.303 503.824 573.391 503.632 573.391 503.408H574.999ZM568.207 514.904C568.207 515.144 568.215 515.424 568.231 515.744C568.263 516.064 568.303 516.392 568.351 516.728C568.399 517.048 568.463 517.376 568.543 517.712C568.639 518.032 568.759 518.328 568.903 518.6C569.383 519.528 570.063 519.992 570.943 519.992C571.423 519.992 571.815 519.872 572.119 519.632C572.439 519.376 572.711 519.04 572.935 518.624C573.175 518.144 573.351 517.568 573.463 516.896C573.575 516.224 573.631 515.584 573.631 514.976C573.631 514.416 573.583 513.8 573.487 513.128C573.391 512.456 573.207 511.856 572.935 511.328C572.711 510.912 572.447 510.6 572.143 510.392C571.855 510.168 571.455 510.056 570.943 510.056C570.479 510.056 570.087 510.16 569.767 510.368C569.447 510.576 569.159 510.912 568.903 511.376C568.631 511.872 568.447 512.416 568.351 513.008C568.255 513.584 568.207 514.216 568.207 514.904ZM577.667 514.88C577.667 514.528 577.691 514.12 577.739 513.656C577.787 513.192 577.867 512.72 577.979 512.24C578.107 511.76 578.267 511.296 578.459 510.848C578.667 510.384 578.923 509.984 579.227 509.648C579.675 509.152 580.171 508.808 580.715 508.616C581.259 508.424 581.827 508.328 582.419 508.328C583.011 508.328 583.579 508.424 584.123 508.616C584.667 508.808 585.163 509.152 585.611 509.648C585.915 509.984 586.163 510.384 586.355 510.848C586.563 511.296 586.723 511.76 586.835 512.24C586.963 512.72 587.051 513.192 587.099 513.656C587.147 514.12 587.171 514.528 587.171 514.88C587.171 515.248 587.147 515.664 587.099 516.128C587.051 516.592 586.963 517.064 586.835 517.544C586.723 518.024 586.563 518.488 586.355 518.936C586.163 519.384 585.915 519.784 585.611 520.136C585.147 520.648 584.651 521 584.123 521.192C583.595 521.384 583.027 521.48 582.419 521.48C581.811 521.48 581.243 521.384 580.715 521.192C580.187 521 579.691 520.648 579.227 520.136C578.923 519.784 578.667 519.384 578.459 518.936C578.267 518.488 578.107 518.024 577.979 517.544C577.867 517.064 577.787 516.592 577.739 516.128C577.691 515.664 577.667 515.248 577.667 514.88ZM579.779 514.88C579.779 515.68 579.827 516.368 579.923 516.944C580.035 517.504 580.195 518.016 580.403 518.48C580.595 518.896 580.843 519.256 581.147 519.56C581.451 519.848 581.875 519.992 582.419 519.992C582.963 519.992 583.387 519.848 583.691 519.56C583.995 519.256 584.243 518.896 584.435 518.48C584.643 518.016 584.795 517.504 584.891 516.944C585.003 516.368 585.059 515.68 585.059 514.88C585.059 514.208 585.011 513.576 584.915 512.984C584.835 512.392 584.675 511.832 584.435 511.304C584.227 510.856 583.971 510.496 583.667 510.224C583.379 509.952 582.963 509.816 582.419 509.816C581.875 509.816 581.451 509.952 581.147 510.224C580.859 510.496 580.611 510.856 580.403 511.304C580.163 511.832 579.995 512.392 579.899 512.984C579.819 513.576 579.779 514.208 579.779 514.88ZM591.529 508.808V510.056H591.577C591.657 509.88 591.745 509.728 591.841 509.6C591.937 509.456 592.049 509.32 592.177 509.192C592.401 508.968 592.697 508.768 593.065 508.592C593.433 508.416 593.889 508.328 594.433 508.328C595.137 508.328 595.745 508.472 596.257 508.76C596.785 509.032 597.233 509.432 597.601 509.96C597.889 510.36 598.113 510.792 598.273 511.256C598.433 511.704 598.553 512.152 598.633 512.6C598.729 513.048 598.785 513.472 598.801 513.872C598.817 514.272 598.825 514.616 598.825 514.904C598.825 515.64 598.753 516.424 598.609 517.256C598.465 518.072 598.193 518.824 597.793 519.512C597.025 520.824 595.913 521.48 594.457 521.48C593.993 521.48 593.569 521.4 593.185 521.24C592.801 521.096 592.473 520.904 592.201 520.664C592.073 520.552 591.961 520.44 591.865 520.328C591.785 520.216 591.705 520.096 591.625 519.968V525.44H589.609V508.808H591.529ZM591.529 514.952C591.529 515.416 591.545 515.92 591.577 516.464C591.625 517.008 591.761 517.56 591.985 518.12C592.161 518.568 592.361 518.92 592.585 519.176C592.809 519.416 593.025 519.6 593.233 519.728C593.457 519.84 593.649 519.912 593.809 519.944C593.985 519.976 594.105 519.992 594.169 519.992C594.281 519.992 594.425 519.976 594.601 519.944C594.793 519.912 594.985 519.84 595.177 519.728C595.369 519.6 595.561 519.424 595.753 519.2C595.945 518.96 596.113 518.648 596.257 518.264C596.321 518.088 596.409 517.744 596.521 517.232C596.649 516.704 596.713 515.928 596.713 514.904C596.713 513.32 596.505 512.104 596.089 511.256C595.785 510.632 595.441 510.24 595.057 510.08C594.689 509.904 594.361 509.816 594.073 509.816C593.753 509.816 593.417 509.92 593.065 510.128C592.713 510.336 592.401 510.728 592.129 511.304C591.857 511.864 591.689 512.448 591.625 513.056C591.561 513.648 591.529 514.28 591.529 514.952ZM601.065 512.408C601.065 511.992 601.113 511.576 601.209 511.16C601.305 510.728 601.457 510.344 601.665 510.008C602.049 509.352 602.545 508.912 603.153 508.688C603.777 508.448 604.449 508.328 605.169 508.328C605.841 508.328 606.401 508.408 606.849 508.568C607.313 508.728 607.681 508.928 607.953 509.168C608.449 509.584 608.761 510.08 608.889 510.656C609.033 511.232 609.105 511.824 609.105 512.432V518.48C609.105 518.928 609.145 519.208 609.225 519.32C609.305 519.432 609.409 519.496 609.537 519.512C609.665 519.528 609.817 519.52 609.993 519.488V521C609.881 521.016 609.729 521.032 609.537 521.048C609.345 521.08 609.161 521.096 608.985 521.096C608.825 521.096 608.649 521.08 608.457 521.048C608.281 521.016 608.097 520.928 607.905 520.784C607.729 520.656 607.601 520.52 607.521 520.376C607.457 520.232 607.417 520.096 607.401 519.968C606.937 520.576 606.401 520.976 605.793 521.168C605.201 521.376 604.609 521.48 604.017 521.48C603.793 521.48 603.561 521.464 603.321 521.432C603.081 521.4 602.841 521.328 602.601 521.216C602.361 521.12 602.129 520.984 601.905 520.808C601.697 520.616 601.497 520.376 601.305 520.088C601.081 519.72 600.929 519.352 600.849 518.984C600.785 518.616 600.753 518.224 600.753 517.808C600.753 517.28 600.841 516.752 601.017 516.224C601.193 515.696 601.561 515.248 602.121 514.88C602.393 514.704 602.713 514.552 603.081 514.424C603.465 514.28 603.921 514.168 604.449 514.088C604.753 514.04 605.073 514 605.409 513.968C605.761 513.92 606.073 513.864 606.345 513.8C606.457 513.768 606.569 513.728 606.681 513.68C606.793 513.632 606.889 513.544 606.969 513.416C607.017 513.336 607.049 513.224 607.065 513.08C607.081 512.936 607.089 512.704 607.089 512.384C607.089 512.24 607.081 512.08 607.065 511.904C607.065 511.728 607.049 511.544 607.017 511.352C606.985 511.16 606.929 510.976 606.849 510.8C606.785 510.608 606.681 510.44 606.537 510.296C606.329 510.072 606.105 509.936 605.865 509.888C605.641 509.84 605.409 509.816 605.169 509.816C604.945 509.816 604.705 509.84 604.449 509.888C604.193 509.936 603.953 510.072 603.729 510.296C603.425 510.568 603.225 510.912 603.129 511.328C603.049 511.728 603.017 512.088 603.033 512.408H601.065ZM607.089 515.072C606.865 515.136 606.673 515.176 606.513 515.192C606.353 515.208 606.185 515.232 606.009 515.264C605.641 515.312 605.313 515.36 605.025 515.408C604.753 515.44 604.489 515.496 604.233 515.576C603.913 515.688 603.657 515.84 603.465 516.032C603.289 516.208 603.153 516.4 603.057 516.608C602.961 516.816 602.897 517.04 602.865 517.28C602.849 517.504 602.841 517.72 602.841 517.928C602.841 518.168 602.857 518.424 602.889 518.696C602.921 518.952 603.025 519.192 603.201 519.416C603.377 519.64 603.569 519.792 603.777 519.872C604.001 519.952 604.201 519.992 604.377 519.992C604.777 519.992 605.169 519.904 605.553 519.728C605.937 519.536 606.249 519.272 606.489 518.936C606.793 518.52 606.969 518.032 607.017 517.472C607.065 516.912 607.089 516.36 607.089 515.816V515.072ZM619.774 512.384H619.702L619.774 513.392V521H617.758V508.808H620.35L623.326 518.096L626.302 508.808H628.894V521H626.878V513.392L626.95 512.384H626.878L624.142 521H622.51L619.774 512.384ZM638.323 508.808H640.507V521H638.491V512.744L638.587 511.448H638.539L638.155 512.6L634.051 521H631.867V508.808H633.883V517.04L633.787 518.36H633.835L634.219 517.184L638.323 508.808ZM645.412 508.808V510.056H645.46C645.54 509.88 645.628 509.728 645.724 509.6C645.82 509.456 645.932 509.32 646.06 509.192C646.284 508.968 646.58 508.768 646.948 508.592C647.316 508.416 647.772 508.328 648.316 508.328C649.02 508.328 649.628 508.472 650.14 508.76C650.668 509.032 651.116 509.432 651.484 509.96C651.772 510.36 651.996 510.792 652.156 511.256C652.316 511.704 652.436 512.152 652.516 512.6C652.612 513.048 652.668 513.472 652.684 513.872C652.7 514.272 652.708 514.616 652.708 514.904C652.708 515.64 652.636 516.424 652.492 517.256C652.348 518.072 652.076 518.824 651.676 519.512C650.908 520.824 649.796 521.48 648.34 521.48C647.876 521.48 647.452 521.4 647.068 521.24C646.684 521.096 646.356 520.904 646.084 520.664C645.956 520.552 645.844 520.44 645.748 520.328C645.668 520.216 645.588 520.096 645.508 519.968V525.44H643.492V508.808H645.412ZM645.412 514.952C645.412 515.416 645.428 515.92 645.46 516.464C645.508 517.008 645.644 517.56 645.868 518.12C646.044 518.568 646.244 518.92 646.468 519.176C646.692 519.416 646.908 519.6 647.116 519.728C647.34 519.84 647.532 519.912 647.692 519.944C647.868 519.976 647.988 519.992 648.052 519.992C648.164 519.992 648.308 519.976 648.484 519.944C648.676 519.912 648.868 519.84 649.06 519.728C649.252 519.6 649.444 519.424 649.636 519.2C649.828 518.96 649.996 518.648 650.14 518.264C650.204 518.088 650.292 517.744 650.404 517.232C650.532 516.704 650.596 515.928 650.596 514.904C650.596 513.32 650.388 512.104 649.972 511.256C649.668 510.632 649.324 510.24 648.94 510.08C648.572 509.904 648.244 509.816 647.956 509.816C647.636 509.816 647.3 509.92 646.948 510.128C646.596 510.336 646.284 510.728 646.012 511.304C645.74 511.864 645.572 512.448 645.508 513.056C645.444 513.648 645.412 514.28 645.412 514.952ZM654.948 512.408C654.948 511.992 654.996 511.576 655.092 511.16C655.188 510.728 655.34 510.344 655.548 510.008C655.932 509.352 656.428 508.912 657.036 508.688C657.66 508.448 658.332 508.328 659.052 508.328C659.724 508.328 660.284 508.408 660.732 508.568C661.196 508.728 661.564 508.928 661.836 509.168C662.332 509.584 662.644 510.08 662.772 510.656C662.916 511.232 662.988 511.824 662.988 512.432V518.48C662.988 518.928 663.028 519.208 663.108 519.32C663.188 519.432 663.292 519.496 663.42 519.512C663.548 519.528 663.7 519.52 663.876 519.488V521C663.764 521.016 663.612 521.032 663.42 521.048C663.228 521.08 663.044 521.096 662.868 521.096C662.708 521.096 662.532 521.08 662.34 521.048C662.164 521.016 661.98 520.928 661.788 520.784C661.612 520.656 661.484 520.52 661.404 520.376C661.34 520.232 661.3 520.096 661.284 519.968C660.82 520.576 660.284 520.976 659.676 521.168C659.084 521.376 658.492 521.48 657.9 521.48C657.676 521.48 657.444 521.464 657.204 521.432C656.964 521.4 656.724 521.328 656.484 521.216C656.244 521.12 656.012 520.984 655.788 520.808C655.58 520.616 655.38 520.376 655.188 520.088C654.964 519.72 654.812 519.352 654.732 518.984C654.668 518.616 654.636 518.224 654.636 517.808C654.636 517.28 654.724 516.752 654.9 516.224C655.076 515.696 655.444 515.248 656.004 514.88C656.276 514.704 656.596 514.552 656.964 514.424C657.348 514.28 657.804 514.168 658.332 514.088C658.636 514.04 658.956 514 659.292 513.968C659.644 513.92 659.956 513.864 660.228 513.8C660.34 513.768 660.452 513.728 660.564 513.68C660.676 513.632 660.772 513.544 660.852 513.416C660.9 513.336 660.932 513.224 660.948 513.08C660.964 512.936 660.972 512.704 660.972 512.384C660.972 512.24 660.964 512.08 660.948 511.904C660.948 511.728 660.932 511.544 660.9 511.352C660.868 511.16 660.812 510.976 660.732 510.8C660.668 510.608 660.564 510.44 660.42 510.296C660.212 510.072 659.988 509.936 659.748 509.888C659.524 509.84 659.292 509.816 659.052 509.816C658.828 509.816 658.588 509.84 658.332 509.888C658.076 509.936 657.836 510.072 657.612 510.296C657.308 510.568 657.108 510.912 657.012 511.328C656.932 511.728 656.9 512.088 656.916 512.408H654.948ZM660.972 515.072C660.748 515.136 660.556 515.176 660.396 515.192C660.236 515.208 660.068 515.232 659.892 515.264C659.524 515.312 659.196 515.36 658.908 515.408C658.636 515.44 658.372 515.496 658.116 515.576C657.796 515.688 657.54 515.84 657.348 516.032C657.172 516.208 657.036 516.4 656.94 516.608C656.844 516.816 656.78 517.04 656.748 517.28C656.732 517.504 656.724 517.72 656.724 517.928C656.724 518.168 656.74 518.424 656.772 518.696C656.804 518.952 656.908 519.192 657.084 519.416C657.26 519.64 657.452 519.792 657.66 519.872C657.884 519.952 658.084 519.992 658.26 519.992C658.66 519.992 659.052 519.904 659.436 519.728C659.82 519.536 660.132 519.272 660.372 518.936C660.676 518.52 660.852 518.032 660.9 517.472C660.948 516.912 660.972 516.36 660.972 515.816V515.072ZM677.232 508.808H679.464L675.264 514.472L679.68 521H677.448L673.656 515.216V521H671.64V508.808H673.656V513.872L677.232 508.808ZM689.164 508.808V521H687.172V510.296H684.244V513.392C684.244 514.432 684.212 515.416 684.148 516.344C684.1 517.272 683.964 518.088 683.74 518.792C683.532 519.496 683.22 520.056 682.804 520.472C682.388 520.888 681.82 521.096 681.1 521.096C680.94 521.096 680.772 521.088 680.596 521.072C680.436 521.056 680.268 521.024 680.092 520.976V519.44C680.652 519.584 681.084 519.504 681.388 519.2C681.692 518.896 681.908 518.456 682.036 517.88C682.18 517.288 682.26 516.6 682.276 515.816C682.308 515.032 682.324 514.224 682.324 513.392V508.808H689.164ZM698.604 508.808H700.788V521H698.772V512.744L698.868 511.448H698.82L698.436 512.6L694.332 521H692.148V508.808H694.164V517.04L694.068 518.36H694.116L694.5 517.184L698.604 508.808ZM709.365 508.808H711.597L707.397 514.472L711.813 521H709.581L705.789 515.216V521H703.773V508.808H705.789V513.872L709.365 508.808ZM715.399 521H713.383V508.808H715.399V513.824H719.575V508.808H721.591V521H719.575V515.312H715.399V521ZM731.018 508.808H733.202V521H731.186V512.744L731.282 511.448H731.234L730.85 512.6L726.746 521H724.562V508.808H726.578V517.04L726.482 518.36H726.53L726.914 517.184L731.018 508.808ZM734.891 510.296V508.808H743.339V510.296H740.123V521H738.107V510.296H734.891ZM753.17 517.472C753.138 517.904 753.042 518.352 752.882 518.816C752.722 519.264 752.49 519.672 752.186 520.04C751.69 520.648 751.138 521.04 750.53 521.216C749.922 521.392 749.33 521.48 748.754 521.48C748.45 521.48 748.146 521.456 747.842 521.408C747.538 521.376 747.234 521.296 746.93 521.168C746.642 521.04 746.354 520.864 746.066 520.64C745.778 520.416 745.506 520.12 745.25 519.752C744.978 519.368 744.762 518.968 744.602 518.552C744.442 518.136 744.314 517.72 744.218 517.304C744.138 516.872 744.082 516.456 744.05 516.056C744.034 515.656 744.026 515.288 744.026 514.952C744.026 514.712 744.034 514.392 744.05 513.992C744.082 513.576 744.138 513.136 744.218 512.672C744.314 512.208 744.442 511.744 744.602 511.28C744.762 510.8 744.986 510.368 745.274 509.984C745.786 509.312 746.354 508.872 746.978 508.664C747.618 508.44 748.226 508.328 748.802 508.328C749.522 508.328 750.186 508.472 750.794 508.76C751.402 509.048 751.922 509.576 752.354 510.344C752.434 510.488 752.522 510.688 752.618 510.944C752.73 511.184 752.834 511.504 752.93 511.904C753.026 512.304 753.106 512.792 753.17 513.368C753.234 513.944 753.266 514.616 753.266 515.384H746.138C746.122 515.96 746.178 516.576 746.306 517.232C746.45 517.888 746.682 518.448 747.002 518.912C747.226 519.264 747.49 519.536 747.794 519.728C748.098 519.904 748.458 519.992 748.874 519.992C749.242 519.992 749.586 519.912 749.906 519.752C750.226 519.592 750.514 519.312 750.77 518.912C750.898 518.704 750.994 518.48 751.058 518.24C751.138 517.984 751.194 517.728 751.226 517.472H753.17ZM751.154 513.896C751.154 513.416 751.106 512.904 751.01 512.36C750.914 511.8 750.778 511.336 750.602 510.968C750.41 510.584 750.178 510.296 749.906 510.104C749.634 509.912 749.266 509.816 748.802 509.816C748.45 509.816 748.106 509.888 747.77 510.032C747.45 510.16 747.154 510.424 746.882 510.824C746.626 511.192 746.434 511.672 746.306 512.264C746.194 512.84 746.138 513.384 746.138 513.896H751.154ZM763.328 521H761.312V508.808H769.616V521H767.6V510.296H763.328V521ZM772.058 514.88C772.058 514.528 772.082 514.12 772.13 513.656C772.178 513.192 772.258 512.72 772.37 512.24C772.498 511.76 772.658 511.296 772.85 510.848C773.058 510.384 773.314 509.984 773.618 509.648C774.066 509.152 774.562 508.808 775.106 508.616C775.65 508.424 776.218 508.328 776.81 508.328C777.402 508.328 777.97 508.424 778.514 508.616C779.058 508.808 779.554 509.152 780.002 509.648C780.306 509.984 780.554 510.384 780.746 510.848C780.954 511.296 781.114 511.76 781.226 512.24C781.354 512.72 781.442 513.192 781.49 513.656C781.538 514.12 781.562 514.528 781.562 514.88C781.562 515.248 781.538 515.664 781.49 516.128C781.442 516.592 781.354 517.064 781.226 517.544C781.114 518.024 780.954 518.488 780.746 518.936C780.554 519.384 780.306 519.784 780.002 520.136C779.538 520.648 779.042 521 778.514 521.192C777.986 521.384 777.418 521.48 776.81 521.48C776.202 521.48 775.634 521.384 775.106 521.192C774.578 521 774.082 520.648 773.618 520.136C773.314 519.784 773.058 519.384 772.85 518.936C772.658 518.488 772.498 518.024 772.37 517.544C772.258 517.064 772.178 516.592 772.13 516.128C772.082 515.664 772.058 515.248 772.058 514.88ZM774.17 514.88C774.17 515.68 774.218 516.368 774.314 516.944C774.426 517.504 774.586 518.016 774.794 518.48C774.986 518.896 775.234 519.256 775.538 519.56C775.842 519.848 776.266 519.992 776.81 519.992C777.354 519.992 777.778 519.848 778.082 519.56C778.386 519.256 778.634 518.896 778.826 518.48C779.034 518.016 779.186 517.504 779.282 516.944C779.394 516.368 779.45 515.68 779.45 514.88C779.45 514.208 779.402 513.576 779.306 512.984C779.226 512.392 779.066 511.832 778.826 511.304C778.618 510.856 778.362 510.496 778.058 510.224C777.77 509.952 777.354 509.816 776.81 509.816C776.266 509.816 775.842 509.952 775.538 510.224C775.25 510.496 775.002 510.856 774.794 511.304C774.554 511.832 774.386 512.392 774.29 512.984C774.21 513.576 774.17 514.208 774.17 514.88ZM791.617 521H789.601V508.808H791.617V513.824H795.793V508.808H797.809V521H795.793V515.312H791.617V521ZM809.397 517.472C809.365 517.904 809.269 518.352 809.109 518.816C808.949 519.264 808.717 519.672 808.413 520.04C807.917 520.648 807.365 521.04 806.757 521.216C806.149 521.392 805.557 521.48 804.981 521.48C804.677 521.48 804.373 521.456 804.069 521.408C803.765 521.376 803.461 521.296 803.157 521.168C802.869 521.04 802.581 520.864 802.293 520.64C802.005 520.416 801.733 520.12 801.477 519.752C801.205 519.368 800.989 518.968 800.829 518.552C800.669 518.136 800.541 517.72 800.445 517.304C800.365 516.872 800.309 516.456 800.277 516.056C800.261 515.656 800.253 515.288 800.253 514.952C800.253 514.712 800.261 514.392 800.277 513.992C800.309 513.576 800.365 513.136 800.445 512.672C800.541 512.208 800.669 511.744 800.829 511.28C800.989 510.8 801.213 510.368 801.501 509.984C802.013 509.312 802.581 508.872 803.205 508.664C803.845 508.44 804.453 508.328 805.029 508.328C805.749 508.328 806.413 508.472 807.021 508.76C807.629 509.048 808.149 509.576 808.581 510.344C808.661 510.488 808.749 510.688 808.845 510.944C808.957 511.184 809.061 511.504 809.157 511.904C809.253 512.304 809.333 512.792 809.397 513.368C809.461 513.944 809.493 514.616 809.493 515.384H802.365C802.349 515.96 802.405 516.576 802.533 517.232C802.677 517.888 802.909 518.448 803.229 518.912C803.453 519.264 803.717 519.536 804.021 519.728C804.325 519.904 804.685 519.992 805.101 519.992C805.469 519.992 805.813 519.912 806.133 519.752C806.453 519.592 806.741 519.312 806.997 518.912C807.125 518.704 807.221 518.48 807.285 518.24C807.365 517.984 807.421 517.728 807.453 517.472H809.397ZM807.381 513.896C807.381 513.416 807.333 512.904 807.237 512.36C807.141 511.8 807.005 511.336 806.829 510.968C806.637 510.584 806.405 510.296 806.133 510.104C805.861 509.912 805.493 509.816 805.029 509.816C804.677 509.816 804.333 509.888 803.997 510.032C803.677 510.16 803.381 510.424 803.109 510.824C802.853 511.192 802.661 511.672 802.533 512.264C802.421 512.84 802.365 513.384 802.365 513.896H807.381ZM813.953 512.384H813.881L813.953 513.392V521H811.937V508.808H814.529L817.505 518.096L820.481 508.808H823.073V521H821.057V513.392L821.129 512.384H821.057L818.321 521H816.689L813.953 512.384ZM826.287 523.664C826.415 523.744 826.559 523.816 826.719 523.88C826.895 523.944 827.063 523.976 827.223 523.976C827.447 523.976 827.631 523.92 827.775 523.808C827.919 523.696 828.039 523.544 828.135 523.352C828.231 523.176 828.311 522.96 828.375 522.704C828.439 522.464 828.503 522.2 828.567 521.912L828.759 521L824.751 508.808H827.055L829.815 518.192L832.095 508.808H834.111L830.439 522.44C830.311 522.936 830.191 523.328 830.079 523.616C829.983 523.904 829.871 524.16 829.743 524.384C829.407 524.896 829.007 525.216 828.543 525.344C828.095 525.472 827.695 525.536 827.343 525.536C827.039 525.536 826.687 525.488 826.287 525.392V523.664ZM836.61 518.384H838.818V521H836.61V518.384Z" fill="#EBE6E1"/>
</svg>
