<svg width="343" height="233" viewBox="0 0 343 233" fill="none" xmlns="http://www.w3.org/2000/svg">
<path d="M2.86098 56H15.881C21.831 56 24.281 52.01 24.281 46.48V35.21C24.281 29.96 21.761 28.35 19.731 27.58C21.761 26.81 23.651 24.78 23.651 20.37V12.39C23.651 7.35 21.831 3.92 15.321 3.92H2.86098V56ZM13.151 32.27C15.671 32.27 16.231 33.46 16.231 35.63V45.15C16.231 47.46 15.671 48.65 13.151 48.65H10.771V32.27H13.151ZM13.151 10.99C15.321 10.99 15.881 12.11 15.881 14.28V20.86C15.881 23.03 15.321 24.5 13.151 24.5H10.771V10.99H13.151ZM39.6684 45.43C39.6684 47.6 38.9684 48.93 37.0784 48.93C35.3984 48.93 34.5584 47.74 34.5584 45.36V14.42C34.5584 12.11 35.0484 10.99 37.0084 10.99C38.9684 10.99 39.6684 12.18 39.6684 14.42V23.59H47.4384V14.28C47.4384 9.17 46.4584 3.43 37.7784 3.43H35.9584C28.8184 3.43 26.5084 8.54 26.5084 13.86V45.64C26.5084 50.89 28.1884 56.63 36.2384 56.63H37.9884C45.5484 56.63 47.4384 50.96 47.4384 45.36V33.32H39.6684V45.43ZM49.9606 3.92V56H68.3706V48.09H57.8706V33.04H65.7806V25.13H57.8706V11.48H67.9506V3.92H49.9606ZM84.68 56H92.59V3.92H72.64C72.64 31.29 72.71 39.13 72.15 44.45C71.94 46.9 71.59 47.95 69.7 47.95H69.14V56H71.1C76.98 56 79.01 53.13 79.36 47.81C79.99 40.25 80.06 28.35 80.06 11.48H84.68V56ZM95.693 3.92V56H114.103V48.09H103.603V33.04H111.513V25.13H103.603V11.48H113.683V3.92H95.693ZM123.902 33.11H129.292V56H137.202V3.92H129.292V24.78H123.902V3.92H115.992V56H123.902V33.11ZM148.033 33.11H153.423V56H161.333V3.92H153.423V24.78H148.033V3.92H140.123V56H148.033V33.11ZM177.624 56H185.254L178.464 3.92H169.084L162.714 56H169.784L170.764 46.2H176.574L177.624 56ZM173.634 19.18L175.734 38.43H171.604L173.634 19.18ZM199.686 34.16V56H207.596V3.92H194.786C189.466 3.92 186.806 6.09 186.806 11.97V26.46C186.806 29.75 188.276 31.85 191.146 32.76L184.846 56H192.966L198.776 34.16H199.686ZM199.686 26.6H197.586C195.416 26.6 194.716 25.2 194.716 22.89V14.35C194.716 12.11 195.136 10.99 197.586 10.99H199.686V26.6ZM217.783 56H224.853V22.33L229.683 56H232.833L237.593 22.33V56H245.013V3.92H235.563L231.713 31.43L227.933 3.92H217.783V56ZM261.369 56H269.279V3.92H261.369L255.699 32.13V3.92H247.789V56H255.699L261.369 27.79V56ZM284.864 34.37C290.254 34.37 292.984 31.01 292.984 24.85V12.53C292.984 6.3 290.464 3.92 284.864 3.92H272.334V56H280.244V34.37H284.864ZM280.244 10.99H282.274C284.584 10.99 285.004 12.53 285.004 14.56V23.1C285.004 25.27 284.724 26.88 282.274 26.88H280.244V10.99ZM316.791 15.33C316.791 8.19 314.341 3.43 306.641 3.43H305.311C297.821 3.43 295.161 8.12 295.161 15.4V44.38C295.161 51.66 297.821 56.63 305.381 56.63H306.711C314.341 56.63 316.791 51.66 316.791 44.38V15.33ZM308.741 44.94C308.741 47.18 308.251 48.93 306.081 48.93C303.841 48.93 303.211 47.18 303.211 44.94V14.98C303.211 12.25 303.981 10.99 306.011 10.99C307.831 10.99 308.741 12.32 308.741 14.98V44.94ZM319.502 56H332.522C338.472 56 340.922 52.01 340.922 46.48V35.21C340.922 29.96 338.402 28.35 336.372 27.58C338.402 26.81 340.292 24.78 340.292 20.37V12.39C340.292 7.35 338.472 3.92 331.962 3.92H319.502V56ZM329.792 32.27C332.312 32.27 332.872 33.46 332.872 35.63V45.15C332.872 47.46 332.312 48.65 329.792 48.65H327.412V32.27H329.792ZM329.792 10.99C331.962 10.99 332.522 12.11 332.522 14.28V20.86C332.522 23.03 331.962 24.5 329.792 24.5H327.412V10.99H329.792Z" fill="#EBE6E1"/>
<path d="M99.0481 63.22V67.91H98.8381C90.1581 67.91 86.5881 71.48 86.5881 80.16V97.73C86.5881 106.2 90.2281 109.98 98.9081 109.98H99.0481V116.7H106.958V109.98H107.098C115.848 109.98 119.418 106.27 119.418 97.8V80.16C119.418 71.55 115.848 67.91 107.168 67.91H106.958V63.22H99.0481ZM99.0481 74.84V103.05H98.8381C95.2681 103.05 94.6381 100.74 94.6381 96.26V80.23C94.6381 77.08 95.3381 74.84 98.8381 74.84H99.0481ZM106.958 74.84H107.238C110.668 74.84 111.368 77.08 111.368 80.23V96.26C111.368 100.74 110.808 103.05 107.238 103.05H106.958V74.84ZM134.284 116H141.914L135.124 63.92H125.744L119.374 116H126.444L127.424 106.2H133.234L134.284 116ZM130.294 79.18L132.394 98.43H128.264L130.294 79.18ZM150.973 93.11H156.363V116H164.273V63.92H156.363V84.78H150.973V63.92H143.063V116H150.973V93.11ZM167.334 63.92V116H185.744V108.09H175.244V93.04H183.154V85.13H175.244V71.48H185.324V63.92H167.334ZM200.303 94.37C205.693 94.37 208.423 91.01 208.423 84.85V72.53C208.423 66.3 205.903 63.92 200.303 63.92H187.773V116H195.683V94.37H200.303ZM195.683 70.99H197.713C200.023 70.99 200.443 72.53 200.443 74.56V83.1C200.443 85.27 200.163 86.88 197.713 86.88H195.683V70.99ZM232.23 75.33C232.23 68.19 229.78 63.43 222.08 63.43H220.75C213.26 63.43 210.6 68.12 210.6 75.4V104.38C210.6 111.66 213.26 116.63 220.82 116.63H222.15C229.78 116.63 232.23 111.66 232.23 104.38V75.33ZM224.18 104.94C224.18 107.18 223.69 108.93 221.52 108.93C219.28 108.93 218.65 107.18 218.65 104.94V74.98C218.65 72.25 219.42 70.99 221.45 70.99C223.27 70.99 224.18 72.32 224.18 74.98V104.94ZM242.711 93.11H248.101V116H256.011V63.92H248.101V84.78H242.711V63.92H234.801V116H242.711V93.11Z" fill="#F36318"/>
<path d="M93.5667 172H91.7867V158H93.5667V163.84H98.5667V158H100.347V172H98.5667V165.42H93.5667V172ZM102.814 164.84C102.814 164.493 102.854 164.147 102.934 163.8C103.014 163.44 103.141 163.12 103.314 162.84C103.634 162.293 104.047 161.927 104.554 161.74C105.074 161.54 105.634 161.44 106.234 161.44C106.794 161.44 107.261 161.507 107.634 161.64C108.021 161.773 108.327 161.94 108.554 162.14C108.967 162.487 109.227 162.9 109.334 163.38C109.454 163.86 109.514 164.353 109.514 164.86V169.9C109.514 170.273 109.547 170.507 109.614 170.6C109.681 170.693 109.767 170.747 109.874 170.76C109.981 170.773 110.107 170.767 110.254 170.74V172C110.161 172.013 110.034 172.027 109.874 172.04C109.714 172.067 109.561 172.08 109.414 172.08C109.281 172.08 109.134 172.067 108.974 172.04C108.827 172.013 108.674 171.94 108.514 171.82C108.367 171.713 108.261 171.6 108.194 171.48C108.141 171.36 108.107 171.247 108.094 171.14C107.707 171.647 107.261 171.98 106.754 172.14C106.261 172.313 105.767 172.4 105.274 172.4C105.087 172.4 104.894 172.387 104.694 172.36C104.494 172.333 104.294 172.273 104.094 172.18C103.894 172.1 103.701 171.987 103.514 171.84C103.341 171.68 103.174 171.48 103.014 171.24C102.827 170.933 102.701 170.627 102.634 170.32C102.581 170.013 102.554 169.687 102.554 169.34C102.554 168.9 102.627 168.46 102.774 168.02C102.921 167.58 103.227 167.207 103.694 166.9C103.921 166.753 104.187 166.627 104.494 166.52C104.814 166.4 105.194 166.307 105.634 166.24C105.887 166.2 106.154 166.167 106.434 166.14C106.727 166.1 106.987 166.053 107.214 166C107.307 165.973 107.401 165.94 107.494 165.9C107.587 165.86 107.667 165.787 107.734 165.68C107.774 165.613 107.801 165.52 107.814 165.4C107.827 165.28 107.834 165.087 107.834 164.82C107.834 164.7 107.827 164.567 107.814 164.42C107.814 164.273 107.801 164.12 107.774 163.96C107.747 163.8 107.701 163.647 107.634 163.5C107.581 163.34 107.494 163.2 107.374 163.08C107.201 162.893 107.014 162.78 106.814 162.74C106.627 162.7 106.434 162.68 106.234 162.68C106.047 162.68 105.847 162.7 105.634 162.74C105.421 162.78 105.221 162.893 105.034 163.08C104.781 163.307 104.614 163.593 104.534 163.94C104.467 164.273 104.441 164.573 104.454 164.84H102.814ZM107.834 167.06C107.647 167.113 107.487 167.147 107.354 167.16C107.221 167.173 107.081 167.193 106.934 167.22C106.627 167.26 106.354 167.3 106.114 167.34C105.887 167.367 105.667 167.413 105.454 167.48C105.187 167.573 104.974 167.7 104.814 167.86C104.667 168.007 104.554 168.167 104.474 168.34C104.394 168.513 104.341 168.7 104.314 168.9C104.301 169.087 104.294 169.267 104.294 169.44C104.294 169.64 104.307 169.853 104.334 170.08C104.361 170.293 104.447 170.493 104.594 170.68C104.741 170.867 104.901 170.993 105.074 171.06C105.261 171.127 105.427 171.16 105.574 171.16C105.907 171.16 106.234 171.087 106.554 170.94C106.874 170.78 107.134 170.56 107.334 170.28C107.587 169.933 107.734 169.527 107.774 169.06C107.814 168.593 107.834 168.133 107.834 167.68V167.06ZM113.256 161.84V164.96C113.256 165.24 113.263 165.487 113.276 165.7C113.303 165.9 113.363 166.073 113.456 166.22C113.603 166.433 113.796 166.553 114.036 166.58C114.29 166.607 114.556 166.62 114.836 166.62C114.996 166.62 115.176 166.613 115.376 166.6C115.59 166.587 115.856 166.573 116.176 166.56V161.84H117.856V172H116.176V167.8C115.763 167.813 115.436 167.827 115.196 167.84C114.97 167.853 114.756 167.86 114.556 167.86C113.996 167.86 113.57 167.827 113.276 167.76C112.983 167.693 112.776 167.627 112.656 167.56C112.39 167.44 112.183 167.287 112.036 167.1C111.89 166.913 111.783 166.72 111.716 166.52C111.676 166.387 111.643 166.227 111.616 166.04C111.59 165.84 111.576 165.573 111.576 165.24V161.84H113.256ZM122.018 172H120.338V161.84H122.018V166.02H125.498V161.84H127.178V172H125.498V167.26H122.018V172ZM135.034 161.84H136.854V172H135.174V165.12L135.254 164.04H135.214L134.894 165L131.474 172H129.654V161.84H131.334V168.7L131.254 169.8H131.294L131.614 168.82L135.034 161.84ZM138.262 163.08V161.84H145.302V163.08H142.622V172H140.942V163.08H138.262ZM153.494 169.06C153.468 169.42 153.388 169.793 153.254 170.18C153.121 170.553 152.928 170.893 152.674 171.2C152.261 171.707 151.801 172.033 151.294 172.18C150.788 172.327 150.294 172.4 149.814 172.4C149.561 172.4 149.308 172.38 149.054 172.34C148.801 172.313 148.548 172.247 148.294 172.14C148.054 172.033 147.814 171.887 147.574 171.7C147.334 171.513 147.108 171.267 146.894 170.96C146.668 170.64 146.488 170.307 146.354 169.96C146.221 169.613 146.114 169.267 146.034 168.92C145.968 168.56 145.921 168.213 145.894 167.88C145.881 167.547 145.874 167.24 145.874 166.96C145.874 166.76 145.881 166.493 145.894 166.16C145.921 165.813 145.968 165.447 146.034 165.06C146.114 164.673 146.221 164.287 146.354 163.9C146.488 163.5 146.674 163.14 146.914 162.82C147.341 162.26 147.814 161.893 148.334 161.72C148.868 161.533 149.374 161.44 149.854 161.44C150.454 161.44 151.008 161.56 151.514 161.8C152.021 162.04 152.454 162.48 152.814 163.12C152.881 163.24 152.954 163.407 153.034 163.62C153.128 163.82 153.214 164.087 153.294 164.42C153.374 164.753 153.441 165.16 153.494 165.64C153.548 166.12 153.574 166.68 153.574 167.32H147.634C147.621 167.8 147.668 168.313 147.774 168.86C147.894 169.407 148.088 169.873 148.354 170.26C148.541 170.553 148.761 170.78 149.014 170.94C149.268 171.087 149.568 171.16 149.914 171.16C150.221 171.16 150.508 171.093 150.774 170.96C151.041 170.827 151.281 170.593 151.494 170.26C151.601 170.087 151.681 169.9 151.734 169.7C151.801 169.487 151.848 169.273 151.874 169.06H153.494ZM151.814 166.08C151.814 165.68 151.774 165.253 151.694 164.8C151.614 164.333 151.501 163.947 151.354 163.64C151.194 163.32 151.001 163.08 150.774 162.92C150.548 162.76 150.241 162.68 149.854 162.68C149.561 162.68 149.274 162.74 148.994 162.86C148.728 162.967 148.481 163.187 148.254 163.52C148.041 163.827 147.881 164.227 147.774 164.72C147.681 165.2 147.634 165.653 147.634 166.08H151.814ZM167.319 168.38C167.306 168.727 167.252 169.133 167.159 169.6C167.066 170.053 166.892 170.48 166.639 170.88C166.266 171.48 165.839 171.88 165.359 172.08C164.879 172.293 164.352 172.4 163.779 172.4C163.219 172.4 162.692 172.307 162.199 172.12C161.706 171.947 161.252 171.567 160.839 170.98C160.652 170.7 160.492 170.393 160.359 170.06C160.239 169.713 160.139 169.36 160.059 169C159.979 168.627 159.919 168.26 159.879 167.9C159.852 167.527 159.839 167.173 159.839 166.84C159.839 166.627 159.846 166.353 159.859 166.02C159.886 165.673 159.932 165.313 159.999 164.94C160.079 164.567 160.186 164.193 160.319 163.82C160.466 163.433 160.659 163.08 160.899 162.76C161.326 162.213 161.779 161.86 162.259 161.7C162.752 161.527 163.232 161.44 163.699 161.44C164.206 161.44 164.686 161.513 165.139 161.66C165.606 161.807 166.039 162.133 166.439 162.64C166.692 162.947 166.892 163.307 167.039 163.72C167.186 164.12 167.259 164.553 167.259 165.02H165.639C165.626 164.767 165.586 164.507 165.519 164.24C165.452 163.96 165.346 163.707 165.199 163.48C164.999 163.173 164.766 162.967 164.499 162.86C164.246 162.74 163.986 162.68 163.719 162.68C162.999 162.68 162.452 163.067 162.079 163.84C161.972 164.053 161.886 164.3 161.819 164.58C161.766 164.847 161.719 165.12 161.679 165.4C161.652 165.68 161.632 165.947 161.619 166.2C161.606 166.453 161.599 166.667 161.599 166.84C161.599 167.213 161.626 167.673 161.679 168.22C161.746 168.753 161.872 169.26 162.059 169.74C162.286 170.287 162.552 170.66 162.859 170.86C163.166 171.06 163.486 171.16 163.819 171.16C164.046 171.16 164.306 171.087 164.599 170.94C164.906 170.793 165.159 170.507 165.359 170.08C165.439 169.92 165.499 169.753 165.539 169.58C165.579 169.393 165.612 169.22 165.639 169.06C165.666 168.9 165.679 168.76 165.679 168.64C165.692 168.52 165.699 168.433 165.699 168.38H167.319ZM173.826 161.84H175.686L172.186 166.56L175.866 172H174.006L170.846 167.18V172H169.166V161.84H170.846V166.06L173.826 161.84ZM178.774 161.84V162.88H178.814C178.88 162.733 178.954 162.607 179.034 162.5C179.114 162.38 179.207 162.267 179.314 162.16C179.5 161.973 179.747 161.807 180.054 161.66C180.36 161.513 180.74 161.44 181.194 161.44C181.78 161.44 182.287 161.56 182.714 161.8C183.154 162.027 183.527 162.36 183.834 162.8C184.074 163.133 184.26 163.493 184.394 163.88C184.527 164.253 184.627 164.627 184.694 165C184.774 165.373 184.82 165.727 184.834 166.06C184.847 166.393 184.854 166.68 184.854 166.92C184.854 167.533 184.794 168.187 184.674 168.88C184.554 169.56 184.327 170.187 183.994 170.76C183.354 171.853 182.427 172.4 181.214 172.4C180.827 172.4 180.474 172.333 180.154 172.2C179.834 172.08 179.56 171.92 179.334 171.72C179.227 171.627 179.134 171.533 179.054 171.44C178.987 171.347 178.92 171.247 178.854 171.14V175.7H177.174V161.84H178.774ZM178.774 166.96C178.774 167.347 178.787 167.767 178.814 168.22C178.854 168.673 178.967 169.133 179.154 169.6C179.3 169.973 179.467 170.267 179.654 170.48C179.84 170.68 180.02 170.833 180.194 170.94C180.38 171.033 180.54 171.093 180.674 171.12C180.82 171.147 180.92 171.16 180.974 171.16C181.067 171.16 181.187 171.147 181.334 171.12C181.494 171.093 181.654 171.033 181.814 170.94C181.974 170.833 182.134 170.687 182.294 170.5C182.454 170.3 182.594 170.04 182.714 169.72C182.767 169.573 182.84 169.287 182.934 168.86C183.04 168.42 183.094 167.773 183.094 166.92C183.094 165.6 182.92 164.587 182.574 163.88C182.32 163.36 182.034 163.033 181.714 162.9C181.407 162.753 181.134 162.68 180.894 162.68C180.627 162.68 180.347 162.767 180.054 162.94C179.76 163.113 179.5 163.44 179.274 163.92C179.047 164.387 178.907 164.873 178.854 165.38C178.8 165.873 178.774 166.4 178.774 166.96ZM186.46 166.9C186.46 166.607 186.48 166.267 186.52 165.88C186.56 165.493 186.627 165.1 186.72 164.7C186.827 164.3 186.96 163.913 187.12 163.54C187.293 163.153 187.507 162.82 187.76 162.54C188.133 162.127 188.547 161.84 189 161.68C189.453 161.52 189.927 161.44 190.42 161.44C190.913 161.44 191.387 161.52 191.84 161.68C192.293 161.84 192.707 162.127 193.08 162.54C193.333 162.82 193.54 163.153 193.7 163.54C193.873 163.913 194.007 164.3 194.1 164.7C194.207 165.1 194.28 165.493 194.32 165.88C194.36 166.267 194.38 166.607 194.38 166.9C194.38 167.207 194.36 167.553 194.32 167.94C194.28 168.327 194.207 168.72 194.1 169.12C194.007 169.52 193.873 169.907 193.7 170.28C193.54 170.653 193.333 170.987 193.08 171.28C192.693 171.707 192.28 172 191.84 172.16C191.4 172.32 190.927 172.4 190.42 172.4C189.913 172.4 189.44 172.32 189 172.16C188.56 172 188.147 171.707 187.76 171.28C187.507 170.987 187.293 170.653 187.12 170.28C186.96 169.907 186.827 169.52 186.72 169.12C186.627 168.72 186.56 168.327 186.52 167.94C186.48 167.553 186.46 167.207 186.46 166.9ZM188.22 166.9C188.22 167.567 188.26 168.14 188.34 168.62C188.433 169.087 188.567 169.513 188.74 169.9C188.9 170.247 189.107 170.547 189.36 170.8C189.613 171.04 189.967 171.16 190.42 171.16C190.873 171.16 191.227 171.04 191.48 170.8C191.733 170.547 191.94 170.247 192.1 169.9C192.273 169.513 192.4 169.087 192.48 168.62C192.573 168.14 192.62 167.567 192.62 166.9C192.62 166.34 192.58 165.813 192.5 165.32C192.433 164.827 192.3 164.36 192.1 163.92C191.927 163.547 191.713 163.247 191.46 163.02C191.22 162.793 190.873 162.68 190.42 162.68C189.967 162.68 189.613 162.793 189.36 163.02C189.12 163.247 188.913 163.547 188.74 163.92C188.54 164.36 188.4 164.827 188.32 165.32C188.253 165.813 188.22 166.34 188.22 166.9ZM202.617 161.84V172H200.957V163.08H198.517V165.66C198.517 166.527 198.49 167.347 198.437 168.12C198.397 168.893 198.283 169.573 198.097 170.16C197.923 170.747 197.663 171.213 197.317 171.56C196.97 171.907 196.497 172.08 195.897 172.08C195.763 172.08 195.623 172.073 195.477 172.06C195.343 172.047 195.203 172.02 195.057 171.98V170.7C195.523 170.82 195.883 170.753 196.137 170.5C196.39 170.247 196.57 169.88 196.677 169.4C196.797 168.907 196.863 168.333 196.877 167.68C196.903 167.027 196.917 166.353 196.917 165.66V161.84H202.617ZM211.699 161.84V172H210.039V163.08H207.599V165.66C207.599 166.527 207.572 167.347 207.519 168.12C207.479 168.893 207.365 169.573 207.179 170.16C207.005 170.747 206.745 171.213 206.399 171.56C206.052 171.907 205.579 172.08 204.979 172.08C204.845 172.08 204.705 172.073 204.559 172.06C204.425 172.047 204.285 172.02 204.139 171.98V170.7C204.605 170.82 204.965 170.753 205.219 170.5C205.472 170.247 205.652 169.88 205.759 169.4C205.879 168.907 205.945 168.333 205.959 167.68C205.985 167.027 205.999 166.353 205.999 165.66V161.84H211.699ZM219.565 161.84H221.385V172H219.705V165.12L219.785 164.04H219.745L219.425 165L216.005 172H214.185V161.84H215.865V168.7L215.785 169.8H215.825L216.145 168.82L219.565 161.84ZM222.793 163.08V161.84H229.833V163.08H227.153V172H225.473V163.08H222.793ZM232.623 161.84V165.86H234.483C234.816 165.86 235.163 165.887 235.523 165.94C235.883 165.993 236.23 166.133 236.563 166.36C236.816 166.547 237.016 166.753 237.163 166.98C237.323 167.207 237.436 167.44 237.503 167.68C237.57 167.92 237.61 168.153 237.623 168.38C237.65 168.593 237.663 168.787 237.663 168.96C237.663 169.347 237.623 169.687 237.543 169.98C237.476 170.26 237.383 170.5 237.263 170.7C237.156 170.9 237.036 171.067 236.903 171.2C236.783 171.32 236.67 171.42 236.563 171.5C236.296 171.687 235.996 171.82 235.663 171.9C235.33 171.967 234.996 172 234.663 172H230.943V161.84H232.623ZM232.623 170.76H234.083C234.23 170.76 234.423 170.747 234.663 170.72C234.903 170.693 235.13 170.587 235.343 170.4C235.45 170.293 235.57 170.127 235.703 169.9C235.836 169.66 235.903 169.307 235.903 168.84C235.903 168.547 235.863 168.287 235.783 168.06C235.716 167.833 235.583 167.633 235.383 167.46C235.183 167.287 234.983 167.187 234.783 167.16C234.583 167.12 234.363 167.1 234.123 167.1H232.623V170.76ZM249.546 161.84H251.366V172H249.686V165.12L249.766 164.04H249.726L249.406 165L245.986 172H244.166V161.84H245.846V168.7L245.766 169.8H245.806L246.126 168.82L249.546 161.84ZM69.088 199H67.408V188.84H74.328V199H72.648V190.08H69.088V199ZM83.9825 196.06C83.9558 196.42 83.8758 196.793 83.7425 197.18C83.6092 197.553 83.4158 197.893 83.1625 198.2C82.7492 198.707 82.2892 199.033 81.7825 199.18C81.2758 199.327 80.7825 199.4 80.3025 199.4C80.0492 199.4 79.7958 199.38 79.5425 199.34C79.2892 199.313 79.0358 199.247 78.7825 199.14C78.5425 199.033 78.3025 198.887 78.0625 198.7C77.8225 198.513 77.5958 198.267 77.3825 197.96C77.1558 197.64 76.9758 197.307 76.8425 196.96C76.7092 196.613 76.6025 196.267 76.5225 195.92C76.4558 195.56 76.4092 195.213 76.3825 194.88C76.3692 194.547 76.3625 194.24 76.3625 193.96C76.3625 193.76 76.3692 193.493 76.3825 193.16C76.4092 192.813 76.4558 192.447 76.5225 192.06C76.6025 191.673 76.7092 191.287 76.8425 190.9C76.9758 190.5 77.1625 190.14 77.4025 189.82C77.8292 189.26 78.3025 188.893 78.8225 188.72C79.3558 188.533 79.8625 188.44 80.3425 188.44C80.9425 188.44 81.4958 188.56 82.0025 188.8C82.5092 189.04 82.9425 189.48 83.3025 190.12C83.3692 190.24 83.4425 190.407 83.5225 190.62C83.6158 190.82 83.7025 191.087 83.7825 191.42C83.8625 191.753 83.9292 192.16 83.9825 192.64C84.0358 193.12 84.0625 193.68 84.0625 194.32H78.1225C78.1092 194.8 78.1558 195.313 78.2625 195.86C78.3825 196.407 78.5758 196.873 78.8425 197.26C79.0292 197.553 79.2492 197.78 79.5025 197.94C79.7558 198.087 80.0558 198.16 80.4025 198.16C80.7092 198.16 80.9958 198.093 81.2625 197.96C81.5292 197.827 81.7692 197.593 81.9825 197.26C82.0892 197.087 82.1692 196.9 82.2225 196.7C82.2892 196.487 82.3358 196.273 82.3625 196.06H83.9825ZM82.3025 193.08C82.3025 192.68 82.2625 192.253 82.1825 191.8C82.1025 191.333 81.9892 190.947 81.8425 190.64C81.6825 190.32 81.4892 190.08 81.2625 189.92C81.0358 189.76 80.7292 189.68 80.3425 189.68C80.0492 189.68 79.7625 189.74 79.4825 189.86C79.2158 189.967 78.9692 190.187 78.7425 190.52C78.5292 190.827 78.3692 191.227 78.2625 191.72C78.1692 192.2 78.1225 192.653 78.1225 193.08H82.3025ZM87.6994 188.84V189.88H87.7394C87.806 189.733 87.8794 189.607 87.9594 189.5C88.0394 189.38 88.1327 189.267 88.2394 189.16C88.426 188.973 88.6727 188.807 88.9794 188.66C89.286 188.513 89.666 188.44 90.1194 188.44C90.706 188.44 91.2127 188.56 91.6394 188.8C92.0794 189.027 92.4527 189.36 92.7594 189.8C92.9994 190.133 93.186 190.493 93.3194 190.88C93.4527 191.253 93.5527 191.627 93.6194 192C93.6994 192.373 93.746 192.727 93.7594 193.06C93.7727 193.393 93.7794 193.68 93.7794 193.92C93.7794 194.533 93.7194 195.187 93.5994 195.88C93.4794 196.56 93.2527 197.187 92.9194 197.76C92.2794 198.853 91.3527 199.4 90.1394 199.4C89.7527 199.4 89.3994 199.333 89.0794 199.2C88.7594 199.08 88.486 198.92 88.2594 198.72C88.1527 198.627 88.0594 198.533 87.9794 198.44C87.9127 198.347 87.846 198.247 87.7794 198.14V202.7H86.0994V188.84H87.6994ZM87.6994 193.96C87.6994 194.347 87.7127 194.767 87.7394 195.22C87.7794 195.673 87.8927 196.133 88.0794 196.6C88.226 196.973 88.3927 197.267 88.5794 197.48C88.766 197.68 88.946 197.833 89.1194 197.94C89.306 198.033 89.466 198.093 89.5994 198.12C89.746 198.147 89.846 198.16 89.8994 198.16C89.9927 198.16 90.1127 198.147 90.2594 198.12C90.4194 198.093 90.5794 198.033 90.7394 197.94C90.8994 197.833 91.0594 197.687 91.2194 197.5C91.3794 197.3 91.5194 197.04 91.6394 196.72C91.6927 196.573 91.766 196.287 91.8594 195.86C91.966 195.42 92.0194 194.773 92.0194 193.92C92.0194 192.6 91.846 191.587 91.4994 190.88C91.246 190.36 90.9594 190.033 90.6394 189.9C90.3327 189.753 90.0594 189.68 89.8194 189.68C89.5527 189.68 89.2727 189.767 88.9794 189.94C88.686 190.113 88.426 190.44 88.1994 190.92C87.9727 191.387 87.8327 191.873 87.7794 192.38C87.726 192.873 87.6994 193.4 87.6994 193.96ZM103.006 196.06C102.979 196.42 102.899 196.793 102.766 197.18C102.633 197.553 102.439 197.893 102.186 198.2C101.773 198.707 101.313 199.033 100.806 199.18C100.299 199.327 99.8059 199.4 99.3259 199.4C99.0726 199.4 98.8193 199.38 98.5659 199.34C98.3126 199.313 98.0593 199.247 97.8059 199.14C97.5659 199.033 97.3259 198.887 97.0859 198.7C96.8459 198.513 96.6193 198.267 96.4059 197.96C96.1793 197.64 95.9993 197.307 95.8659 196.96C95.7326 196.613 95.6259 196.267 95.5459 195.92C95.4793 195.56 95.4326 195.213 95.4059 194.88C95.3926 194.547 95.3859 194.24 95.3859 193.96C95.3859 193.76 95.3926 193.493 95.4059 193.16C95.4326 192.813 95.4793 192.447 95.5459 192.06C95.6259 191.673 95.7326 191.287 95.8659 190.9C95.9993 190.5 96.1859 190.14 96.4259 189.82C96.8526 189.26 97.3259 188.893 97.8459 188.72C98.3793 188.533 98.8859 188.44 99.3659 188.44C99.9659 188.44 100.519 188.56 101.026 188.8C101.533 189.04 101.966 189.48 102.326 190.12C102.393 190.24 102.466 190.407 102.546 190.62C102.639 190.82 102.726 191.087 102.806 191.42C102.886 191.753 102.953 192.16 103.006 192.64C103.059 193.12 103.086 193.68 103.086 194.32H97.1459C97.1326 194.8 97.1793 195.313 97.2859 195.86C97.4059 196.407 97.5993 196.873 97.8659 197.26C98.0526 197.553 98.2726 197.78 98.5259 197.94C98.7793 198.087 99.0793 198.16 99.4259 198.16C99.7326 198.16 100.019 198.093 100.286 197.96C100.553 197.827 100.793 197.593 101.006 197.26C101.113 197.087 101.193 196.9 101.246 196.7C101.313 196.487 101.359 196.273 101.386 196.06H103.006ZM101.326 193.08C101.326 192.68 101.286 192.253 101.206 191.8C101.126 191.333 101.013 190.947 100.866 190.64C100.706 190.32 100.513 190.08 100.286 189.92C100.059 189.76 99.7526 189.68 99.3659 189.68C99.0726 189.68 98.7859 189.74 98.5059 189.86C98.2393 189.967 97.9926 190.187 97.7659 190.52C97.5526 190.827 97.3926 191.227 97.2859 191.72C97.1926 192.2 97.1459 192.653 97.1459 193.08H101.326ZM106.803 191.82H106.743L106.803 192.66V199H105.123V188.84H107.283L109.763 196.58L112.243 188.84H114.403V199H112.723V192.66L112.783 191.82H112.723L110.443 199H109.083L106.803 191.82ZM124.061 196.06C124.034 196.42 123.954 196.793 123.821 197.18C123.687 197.553 123.494 197.893 123.241 198.2C122.827 198.707 122.367 199.033 121.861 199.18C121.354 199.327 120.861 199.4 120.381 199.4C120.127 199.4 119.874 199.38 119.621 199.34C119.367 199.313 119.114 199.247 118.861 199.14C118.621 199.033 118.381 198.887 118.141 198.7C117.901 198.513 117.674 198.267 117.461 197.96C117.234 197.64 117.054 197.307 116.921 196.96C116.787 196.613 116.681 196.267 116.601 195.92C116.534 195.56 116.487 195.213 116.461 194.88C116.447 194.547 116.441 194.24 116.441 193.96C116.441 193.76 116.447 193.493 116.461 193.16C116.487 192.813 116.534 192.447 116.601 192.06C116.681 191.673 116.787 191.287 116.921 190.9C117.054 190.5 117.241 190.14 117.481 189.82C117.907 189.26 118.381 188.893 118.901 188.72C119.434 188.533 119.941 188.44 120.421 188.44C121.021 188.44 121.574 188.56 122.081 188.8C122.587 189.04 123.021 189.48 123.381 190.12C123.447 190.24 123.521 190.407 123.601 190.62C123.694 190.82 123.781 191.087 123.861 191.42C123.941 191.753 124.007 192.16 124.061 192.64C124.114 193.12 124.141 193.68 124.141 194.32H118.201C118.187 194.8 118.234 195.313 118.341 195.86C118.461 196.407 118.654 196.873 118.921 197.26C119.107 197.553 119.327 197.78 119.581 197.94C119.834 198.087 120.134 198.16 120.481 198.16C120.787 198.16 121.074 198.093 121.341 197.96C121.607 197.827 121.847 197.593 122.061 197.26C122.167 197.087 122.247 196.9 122.301 196.7C122.367 196.487 122.414 196.273 122.441 196.06H124.061ZM122.381 193.08C122.381 192.68 122.341 192.253 122.261 191.8C122.181 191.333 122.067 190.947 121.921 190.64C121.761 190.32 121.567 190.08 121.341 189.92C121.114 189.76 120.807 189.68 120.421 189.68C120.127 189.68 119.841 189.74 119.561 189.86C119.294 189.967 119.047 190.187 118.821 190.52C118.607 190.827 118.447 191.227 118.341 191.72C118.247 192.2 118.201 192.653 118.201 193.08H122.381ZM130.738 197.76V188.84H132.418V197.76H135.298V188.84H136.978V197.76H138.298L138.198 201.64H136.718V199H126.178V188.84H127.858V197.76H130.738ZM139.708 191.84C139.708 191.493 139.748 191.147 139.828 190.8C139.908 190.44 140.035 190.12 140.208 189.84C140.528 189.293 140.942 188.927 141.448 188.74C141.968 188.54 142.528 188.44 143.128 188.44C143.688 188.44 144.155 188.507 144.528 188.64C144.915 188.773 145.222 188.94 145.448 189.14C145.862 189.487 146.122 189.9 146.228 190.38C146.348 190.86 146.408 191.353 146.408 191.86V196.9C146.408 197.273 146.442 197.507 146.508 197.6C146.575 197.693 146.662 197.747 146.768 197.76C146.875 197.773 147.002 197.767 147.148 197.74V199C147.055 199.013 146.928 199.027 146.768 199.04C146.608 199.067 146.455 199.08 146.308 199.08C146.175 199.08 146.028 199.067 145.868 199.04C145.722 199.013 145.568 198.94 145.408 198.82C145.262 198.713 145.155 198.6 145.088 198.48C145.035 198.36 145.002 198.247 144.988 198.14C144.602 198.647 144.155 198.98 143.648 199.14C143.155 199.313 142.662 199.4 142.168 199.4C141.982 199.4 141.788 199.387 141.588 199.36C141.388 199.333 141.188 199.273 140.988 199.18C140.788 199.1 140.595 198.987 140.408 198.84C140.235 198.68 140.068 198.48 139.908 198.24C139.722 197.933 139.595 197.627 139.528 197.32C139.475 197.013 139.448 196.687 139.448 196.34C139.448 195.9 139.522 195.46 139.668 195.02C139.815 194.58 140.122 194.207 140.588 193.9C140.815 193.753 141.082 193.627 141.388 193.52C141.708 193.4 142.088 193.307 142.528 193.24C142.782 193.2 143.048 193.167 143.328 193.14C143.622 193.1 143.882 193.053 144.108 193C144.202 192.973 144.295 192.94 144.388 192.9C144.482 192.86 144.562 192.787 144.628 192.68C144.668 192.613 144.695 192.52 144.708 192.4C144.722 192.28 144.728 192.087 144.728 191.82C144.728 191.7 144.722 191.567 144.708 191.42C144.708 191.273 144.695 191.12 144.668 190.96C144.642 190.8 144.595 190.647 144.528 190.5C144.475 190.34 144.388 190.2 144.268 190.08C144.095 189.893 143.908 189.78 143.708 189.74C143.522 189.7 143.328 189.68 143.128 189.68C142.942 189.68 142.742 189.7 142.528 189.74C142.315 189.78 142.115 189.893 141.928 190.08C141.675 190.307 141.508 190.593 141.428 190.94C141.362 191.273 141.335 191.573 141.348 191.84H139.708ZM144.728 194.06C144.542 194.113 144.382 194.147 144.248 194.16C144.115 194.173 143.975 194.193 143.828 194.22C143.522 194.26 143.248 194.3 143.008 194.34C142.782 194.367 142.562 194.413 142.348 194.48C142.082 194.573 141.868 194.7 141.708 194.86C141.562 195.007 141.448 195.167 141.368 195.34C141.288 195.513 141.235 195.7 141.208 195.9C141.195 196.087 141.188 196.267 141.188 196.44C141.188 196.64 141.202 196.853 141.228 197.08C141.255 197.293 141.342 197.493 141.488 197.68C141.635 197.867 141.795 197.993 141.968 198.06C142.155 198.127 142.322 198.16 142.468 198.16C142.802 198.16 143.128 198.087 143.448 197.94C143.768 197.78 144.028 197.56 144.228 197.28C144.482 196.933 144.628 196.527 144.668 196.06C144.708 195.593 144.728 195.133 144.728 194.68V194.06ZM151.191 185C151.191 185.147 151.204 185.32 151.231 185.52C151.258 185.707 151.318 185.873 151.411 186.02C151.571 186.287 151.758 186.447 151.971 186.5C152.184 186.553 152.364 186.58 152.511 186.58C152.658 186.58 152.838 186.553 153.051 186.5C153.264 186.447 153.451 186.287 153.611 186.02C153.704 185.873 153.764 185.707 153.791 185.52C153.818 185.32 153.831 185.147 153.831 185H155.271C155.244 185.587 155.131 186.053 154.931 186.4C154.731 186.747 154.484 187.02 154.191 187.22C153.898 187.407 153.611 187.527 153.331 187.58C153.051 187.62 152.778 187.64 152.511 187.64C152.244 187.64 151.971 187.62 151.691 187.58C151.411 187.527 151.124 187.407 150.831 187.22C150.538 187.02 150.291 186.747 150.091 186.4C149.891 186.053 149.778 185.587 149.751 185H151.191ZM154.331 188.84H156.151V199H154.471V192.12L154.551 191.04H154.511L154.191 192L150.771 199H148.951V188.84H150.631V195.7L150.551 196.8H150.591L150.911 195.82L154.331 188.84ZM157.558 190.08V188.84H164.598V190.08H161.918V199H160.238V190.08H157.558ZM172.791 196.06C172.764 196.42 172.684 196.793 172.551 197.18C172.418 197.553 172.224 197.893 171.971 198.2C171.558 198.707 171.098 199.033 170.591 199.18C170.084 199.327 169.591 199.4 169.111 199.4C168.858 199.4 168.604 199.38 168.351 199.34C168.098 199.313 167.844 199.247 167.591 199.14C167.351 199.033 167.111 198.887 166.871 198.7C166.631 198.513 166.404 198.267 166.191 197.96C165.964 197.64 165.784 197.307 165.651 196.96C165.518 196.613 165.411 196.267 165.331 195.92C165.264 195.56 165.218 195.213 165.191 194.88C165.178 194.547 165.171 194.24 165.171 193.96C165.171 193.76 165.178 193.493 165.191 193.16C165.218 192.813 165.264 192.447 165.331 192.06C165.411 191.673 165.518 191.287 165.651 190.9C165.784 190.5 165.971 190.14 166.211 189.82C166.638 189.26 167.111 188.893 167.631 188.72C168.164 188.533 168.671 188.44 169.151 188.44C169.751 188.44 170.304 188.56 170.811 188.8C171.318 189.04 171.751 189.48 172.111 190.12C172.178 190.24 172.251 190.407 172.331 190.62C172.424 190.82 172.511 191.087 172.591 191.42C172.671 191.753 172.738 192.16 172.791 192.64C172.844 193.12 172.871 193.68 172.871 194.32H166.931C166.918 194.8 166.964 195.313 167.071 195.86C167.191 196.407 167.384 196.873 167.651 197.26C167.838 197.553 168.058 197.78 168.311 197.94C168.564 198.087 168.864 198.16 169.211 198.16C169.518 198.16 169.804 198.093 170.071 197.96C170.338 197.827 170.578 197.593 170.791 197.26C170.898 197.087 170.978 196.9 171.031 196.7C171.098 196.487 171.144 196.273 171.171 196.06H172.791ZM171.111 193.08C171.111 192.68 171.071 192.253 170.991 191.8C170.911 191.333 170.798 190.947 170.651 190.64C170.491 190.32 170.298 190.08 170.071 189.92C169.844 189.76 169.538 189.68 169.151 189.68C168.858 189.68 168.571 189.74 168.291 189.86C168.024 189.967 167.778 190.187 167.551 190.52C167.338 190.827 167.178 191.227 167.071 191.72C166.978 192.2 166.931 192.653 166.931 193.08H171.111ZM181.948 195.38C181.935 195.727 181.881 196.133 181.788 196.6C181.695 197.053 181.521 197.48 181.268 197.88C180.895 198.48 180.468 198.88 179.988 199.08C179.508 199.293 178.981 199.4 178.408 199.4C177.848 199.4 177.321 199.307 176.828 199.12C176.335 198.947 175.881 198.567 175.468 197.98C175.281 197.7 175.121 197.393 174.988 197.06C174.868 196.713 174.768 196.36 174.688 196C174.608 195.627 174.548 195.26 174.508 194.9C174.481 194.527 174.468 194.173 174.468 193.84C174.468 193.627 174.475 193.353 174.488 193.02C174.515 192.673 174.561 192.313 174.628 191.94C174.708 191.567 174.815 191.193 174.948 190.82C175.095 190.433 175.288 190.08 175.528 189.76C175.955 189.213 176.408 188.86 176.888 188.7C177.381 188.527 177.861 188.44 178.328 188.44C178.835 188.44 179.315 188.513 179.768 188.66C180.235 188.807 180.668 189.133 181.068 189.64C181.321 189.947 181.521 190.307 181.668 190.72C181.815 191.12 181.888 191.553 181.888 192.02H180.268C180.255 191.767 180.215 191.507 180.148 191.24C180.081 190.96 179.975 190.707 179.828 190.48C179.628 190.173 179.395 189.967 179.128 189.86C178.875 189.74 178.615 189.68 178.348 189.68C177.628 189.68 177.081 190.067 176.708 190.84C176.601 191.053 176.515 191.3 176.448 191.58C176.395 191.847 176.348 192.12 176.308 192.4C176.281 192.68 176.261 192.947 176.248 193.2C176.235 193.453 176.228 193.667 176.228 193.84C176.228 194.213 176.255 194.673 176.308 195.22C176.375 195.753 176.501 196.26 176.688 196.74C176.915 197.287 177.181 197.66 177.488 197.86C177.795 198.06 178.115 198.16 178.448 198.16C178.675 198.16 178.935 198.087 179.228 197.94C179.535 197.793 179.788 197.507 179.988 197.08C180.068 196.92 180.128 196.753 180.168 196.58C180.208 196.393 180.241 196.22 180.268 196.06C180.295 195.9 180.308 195.76 180.308 195.64C180.321 195.52 180.328 195.433 180.328 195.38H181.948ZM185.475 188.84V192.86H187.335C187.668 192.86 188.015 192.887 188.375 192.94C188.735 192.993 189.081 193.133 189.415 193.36C189.668 193.547 189.868 193.753 190.015 193.98C190.175 194.207 190.288 194.44 190.355 194.68C190.421 194.92 190.461 195.153 190.475 195.38C190.501 195.593 190.515 195.787 190.515 195.96C190.515 196.347 190.475 196.687 190.395 196.98C190.328 197.26 190.235 197.5 190.115 197.7C190.008 197.9 189.888 198.067 189.755 198.2C189.635 198.32 189.521 198.42 189.415 198.5C189.148 198.687 188.848 198.82 188.515 198.9C188.181 198.967 187.848 199 187.515 199H183.795V188.84H185.475ZM185.475 197.76H186.935C187.081 197.76 187.275 197.747 187.515 197.72C187.755 197.693 187.981 197.587 188.195 197.4C188.301 197.293 188.421 197.127 188.555 196.9C188.688 196.66 188.755 196.307 188.755 195.84C188.755 195.547 188.715 195.287 188.635 195.06C188.568 194.833 188.435 194.633 188.235 194.46C188.035 194.287 187.835 194.187 187.635 194.16C187.435 194.12 187.215 194.1 186.975 194.1H185.475V197.76ZM198.697 199H197.017V188.84H203.937V199H202.257V190.08H198.697V199ZM205.972 193.9C205.972 193.607 205.992 193.267 206.032 192.88C206.072 192.493 206.139 192.1 206.232 191.7C206.339 191.3 206.472 190.913 206.632 190.54C206.805 190.153 207.019 189.82 207.272 189.54C207.645 189.127 208.059 188.84 208.512 188.68C208.965 188.52 209.439 188.44 209.932 188.44C210.425 188.44 210.899 188.52 211.352 188.68C211.805 188.84 212.219 189.127 212.592 189.54C212.845 189.82 213.052 190.153 213.212 190.54C213.385 190.913 213.519 191.3 213.612 191.7C213.719 192.1 213.792 192.493 213.832 192.88C213.872 193.267 213.892 193.607 213.892 193.9C213.892 194.207 213.872 194.553 213.832 194.94C213.792 195.327 213.719 195.72 213.612 196.12C213.519 196.52 213.385 196.907 213.212 197.28C213.052 197.653 212.845 197.987 212.592 198.28C212.205 198.707 211.792 199 211.352 199.16C210.912 199.32 210.439 199.4 209.932 199.4C209.425 199.4 208.952 199.32 208.512 199.16C208.072 199 207.659 198.707 207.272 198.28C207.019 197.987 206.805 197.653 206.632 197.28C206.472 196.907 206.339 196.52 206.232 196.12C206.139 195.72 206.072 195.327 206.032 194.94C205.992 194.553 205.972 194.207 205.972 193.9ZM207.732 193.9C207.732 194.567 207.772 195.14 207.852 195.62C207.945 196.087 208.079 196.513 208.252 196.9C208.412 197.247 208.619 197.547 208.872 197.8C209.125 198.04 209.479 198.16 209.932 198.16C210.385 198.16 210.739 198.04 210.992 197.8C211.245 197.547 211.452 197.247 211.612 196.9C211.785 196.513 211.912 196.087 211.992 195.62C212.085 195.14 212.132 194.567 212.132 193.9C212.132 193.34 212.092 192.813 212.012 192.32C211.945 191.827 211.812 191.36 211.612 190.92C211.439 190.547 211.225 190.247 210.972 190.02C210.732 189.793 210.385 189.68 209.932 189.68C209.479 189.68 209.125 189.793 208.872 190.02C208.632 190.247 208.425 190.547 208.252 190.92C208.052 191.36 207.912 191.827 207.832 192.32C207.765 192.813 207.732 193.34 207.732 193.9ZM222.272 191.82H222.212L222.272 192.66V199H220.592V188.84H222.752L225.232 196.58L227.712 188.84H229.872V199H228.192V192.66L228.252 191.82H228.192L225.912 199H224.552L222.272 191.82ZM237.729 188.84H239.549V199H237.869V192.12L237.949 191.04H237.909L237.589 192L234.169 199H232.349V188.84H234.029V195.7L233.949 196.8H233.989L234.309 195.82L237.729 188.84ZM243.637 188.84V189.88H243.677C243.744 189.733 243.817 189.607 243.897 189.5C243.977 189.38 244.07 189.267 244.177 189.16C244.364 188.973 244.61 188.807 244.917 188.66C245.224 188.513 245.604 188.44 246.057 188.44C246.644 188.44 247.15 188.56 247.577 188.8C248.017 189.027 248.39 189.36 248.697 189.8C248.937 190.133 249.124 190.493 249.257 190.88C249.39 191.253 249.49 191.627 249.557 192C249.637 192.373 249.684 192.727 249.697 193.06C249.71 193.393 249.717 193.68 249.717 193.92C249.717 194.533 249.657 195.187 249.537 195.88C249.417 196.56 249.19 197.187 248.857 197.76C248.217 198.853 247.29 199.4 246.077 199.4C245.69 199.4 245.337 199.333 245.017 199.2C244.697 199.08 244.424 198.92 244.197 198.72C244.09 198.627 243.997 198.533 243.917 198.44C243.85 198.347 243.784 198.247 243.717 198.14V202.7H242.037V188.84H243.637ZM243.637 193.96C243.637 194.347 243.65 194.767 243.677 195.22C243.717 195.673 243.83 196.133 244.017 196.6C244.164 196.973 244.33 197.267 244.517 197.48C244.704 197.68 244.884 197.833 245.057 197.94C245.244 198.033 245.404 198.093 245.537 198.12C245.684 198.147 245.784 198.16 245.837 198.16C245.93 198.16 246.05 198.147 246.197 198.12C246.357 198.093 246.517 198.033 246.677 197.94C246.837 197.833 246.997 197.687 247.157 197.5C247.317 197.3 247.457 197.04 247.577 196.72C247.63 196.573 247.704 196.287 247.797 195.86C247.904 195.42 247.957 194.773 247.957 193.92C247.957 192.6 247.784 191.587 247.437 190.88C247.184 190.36 246.897 190.033 246.577 189.9C246.27 189.753 245.997 189.68 245.757 189.68C245.49 189.68 245.21 189.767 244.917 189.94C244.624 190.113 244.364 190.44 244.137 190.92C243.91 191.387 243.77 191.873 243.717 192.38C243.664 192.873 243.637 193.4 243.637 193.96ZM251.583 191.84C251.583 191.493 251.623 191.147 251.703 190.8C251.783 190.44 251.91 190.12 252.083 189.84C252.403 189.293 252.817 188.927 253.323 188.74C253.843 188.54 254.403 188.44 255.003 188.44C255.563 188.44 256.03 188.507 256.403 188.64C256.79 188.773 257.097 188.94 257.323 189.14C257.737 189.487 257.997 189.9 258.103 190.38C258.223 190.86 258.283 191.353 258.283 191.86V196.9C258.283 197.273 258.317 197.507 258.383 197.6C258.45 197.693 258.537 197.747 258.643 197.76C258.75 197.773 258.877 197.767 259.023 197.74V199C258.93 199.013 258.803 199.027 258.643 199.04C258.483 199.067 258.33 199.08 258.183 199.08C258.05 199.08 257.903 199.067 257.743 199.04C257.597 199.013 257.443 198.94 257.283 198.82C257.137 198.713 257.03 198.6 256.963 198.48C256.91 198.36 256.877 198.247 256.863 198.14C256.477 198.647 256.03 198.98 255.523 199.14C255.03 199.313 254.537 199.4 254.043 199.4C253.857 199.4 253.663 199.387 253.463 199.36C253.263 199.333 253.063 199.273 252.863 199.18C252.663 199.1 252.47 198.987 252.283 198.84C252.11 198.68 251.943 198.48 251.783 198.24C251.597 197.933 251.47 197.627 251.403 197.32C251.35 197.013 251.323 196.687 251.323 196.34C251.323 195.9 251.397 195.46 251.543 195.02C251.69 194.58 251.997 194.207 252.463 193.9C252.69 193.753 252.957 193.627 253.263 193.52C253.583 193.4 253.963 193.307 254.403 193.24C254.657 193.2 254.923 193.167 255.203 193.14C255.497 193.1 255.757 193.053 255.983 193C256.077 192.973 256.17 192.94 256.263 192.9C256.357 192.86 256.437 192.787 256.503 192.68C256.543 192.613 256.57 192.52 256.583 192.4C256.597 192.28 256.603 192.087 256.603 191.82C256.603 191.7 256.597 191.567 256.583 191.42C256.583 191.273 256.57 191.12 256.543 190.96C256.517 190.8 256.47 190.647 256.403 190.5C256.35 190.34 256.263 190.2 256.143 190.08C255.97 189.893 255.783 189.78 255.583 189.74C255.397 189.7 255.203 189.68 255.003 189.68C254.817 189.68 254.617 189.7 254.403 189.74C254.19 189.78 253.99 189.893 253.803 190.08C253.55 190.307 253.383 190.593 253.303 190.94C253.237 191.273 253.21 191.573 253.223 191.84H251.583ZM256.603 194.06C256.417 194.113 256.257 194.147 256.123 194.16C255.99 194.173 255.85 194.193 255.703 194.22C255.397 194.26 255.123 194.3 254.883 194.34C254.657 194.367 254.437 194.413 254.223 194.48C253.957 194.573 253.743 194.7 253.583 194.86C253.437 195.007 253.323 195.167 253.243 195.34C253.163 195.513 253.11 195.7 253.083 195.9C253.07 196.087 253.063 196.267 253.063 196.44C253.063 196.64 253.077 196.853 253.103 197.08C253.13 197.293 253.217 197.493 253.363 197.68C253.51 197.867 253.67 197.993 253.843 198.06C254.03 198.127 254.197 198.16 254.343 198.16C254.677 198.16 255.003 198.087 255.323 197.94C255.643 197.78 255.903 197.56 256.103 197.28C256.357 196.933 256.503 196.527 256.543 196.06C256.583 195.593 256.603 195.133 256.603 194.68V194.06ZM262.506 191.82H262.446L262.506 192.66V199H260.826V188.84H262.986L265.466 196.58L267.946 188.84H270.106V199H268.426V192.66L268.486 191.82H268.426L266.146 199H264.786L262.506 191.82ZM273.164 196.82H275.004V199H273.164V196.82ZM30.1702 224.42C30.5436 223.727 30.8569 223.027 31.1102 222.32C31.3636 221.613 31.5702 220.827 31.7302 219.96C31.9036 219.08 32.0169 218.2 32.0702 217.32C32.1236 216.44 32.1502 215.627 32.1502 214.88V212H39.0102V224.42H40.5502L40.4302 229.16H38.8302V226H30.8902V229.16H29.2902L29.1702 224.42H30.1702ZM37.2302 224.42V213.58H33.9302V215.32C33.9302 216.08 33.9102 216.773 33.8702 217.4C33.8302 218.013 33.7769 218.58 33.7102 219.1C33.6569 219.607 33.5836 220.073 33.4902 220.5C33.3969 220.913 33.3036 221.307 33.2102 221.68C33.0636 222.227 32.9036 222.713 32.7302 223.14C32.5702 223.567 32.3769 223.993 32.1502 224.42H37.2302ZM48.7787 215.84V226H47.1187V217.08H44.6787V219.66C44.6787 220.527 44.652 221.347 44.5987 222.12C44.5587 222.893 44.4453 223.573 44.2587 224.16C44.0853 224.747 43.8253 225.213 43.4787 225.56C43.132 225.907 42.6587 226.08 42.0587 226.08C41.9253 226.08 41.7853 226.073 41.6387 226.06C41.5053 226.047 41.3653 226.02 41.2187 225.98V224.7C41.6853 224.82 42.0453 224.753 42.2987 224.5C42.552 224.247 42.732 223.88 42.8387 223.4C42.9587 222.907 43.0253 222.333 43.0387 221.68C43.0653 221.027 43.0787 220.353 43.0787 219.66V215.84H48.7787ZM52.6054 226H50.8254L53.0254 221.96C52.8654 221.933 52.6854 221.893 52.4854 221.84C52.2987 221.773 52.1121 221.673 51.9254 221.54C51.8321 221.473 51.7254 221.38 51.6054 221.26C51.4854 221.14 51.3654 220.98 51.2454 220.78C51.1387 220.58 51.0454 220.34 50.9654 220.06C50.8854 219.767 50.8454 219.427 50.8454 219.04C50.8454 218.387 50.9387 217.853 51.1254 217.44C51.3254 217.027 51.5454 216.707 51.7854 216.48C52.1187 216.187 52.4587 216.007 52.8054 215.94C53.1654 215.873 53.5054 215.84 53.8254 215.84H57.6454V226H55.9654V222H54.7054L52.6054 226ZM54.4054 217.08C54.2587 217.08 54.0721 217.093 53.8454 217.12C53.6187 217.133 53.4054 217.213 53.2054 217.36C53.0987 217.427 52.9654 217.587 52.8054 217.84C52.6587 218.08 52.5854 218.46 52.5854 218.98C52.5854 219.18 52.6187 219.413 52.6854 219.68C52.7521 219.933 52.8987 220.16 53.1254 220.36C53.3254 220.547 53.5387 220.66 53.7654 220.7C53.9921 220.74 54.1987 220.76 54.3854 220.76H55.9654V217.08H54.4054ZM68.4605 215.84C68.8739 215.84 69.2472 215.873 69.5805 215.94C69.9139 215.993 70.2272 216.153 70.5205 216.42C70.7072 216.593 70.8805 216.833 71.0405 217.14C71.2005 217.447 71.2805 217.847 71.2805 218.34C71.2805 218.607 71.2472 218.88 71.1805 219.16C71.1139 219.427 71.0139 219.653 70.8805 219.84C70.7339 220.067 70.5405 220.247 70.3005 220.38C70.0739 220.5 69.8272 220.573 69.5605 220.6V220.72C69.7872 220.747 70.0472 220.827 70.3405 220.96C70.6339 221.08 70.8939 221.293 71.1205 221.6C71.3072 221.867 71.4272 222.147 71.4805 222.44C71.5472 222.72 71.5805 223 71.5805 223.28C71.5805 223.573 71.5339 223.9 71.4405 224.26C71.3605 224.607 71.1739 224.933 70.8805 225.24C70.5739 225.56 70.2072 225.767 69.7805 225.86C69.3672 225.953 68.9072 226 68.4005 226H64.8005V215.84H68.4605ZM66.4805 220.08H67.9005C68.0872 220.08 68.2872 220.06 68.5005 220.02C68.7272 219.967 68.9339 219.847 69.1205 219.66C69.3072 219.473 69.4205 219.28 69.4605 219.08C69.5139 218.88 69.5405 218.693 69.5405 218.52C69.5405 218.333 69.5139 218.127 69.4605 217.9C69.4072 217.673 69.2605 217.48 69.0205 217.32C68.8339 217.2 68.6405 217.133 68.4405 217.12C68.2539 217.093 68.0939 217.08 67.9605 217.08H66.4805V220.08ZM66.4805 224.76H68.0405C68.2139 224.76 68.3872 224.753 68.5605 224.74C68.7339 224.713 68.9139 224.647 69.1005 224.54C69.4072 224.353 69.6005 224.12 69.6805 223.84C69.7739 223.56 69.8205 223.293 69.8205 223.04C69.8205 222.613 69.7472 222.293 69.6005 222.08C69.4672 221.853 69.3339 221.693 69.2005 221.6C69.0139 221.467 68.8139 221.387 68.6005 221.36C68.3872 221.333 68.1805 221.32 67.9805 221.32H66.4805V224.76ZM75.3282 215.84V219.86H77.0682C77.4015 219.86 77.7482 219.887 78.1082 219.94C78.4682 219.993 78.8149 220.133 79.1482 220.36C79.4015 220.547 79.6015 220.753 79.7482 220.98C79.9082 221.207 80.0215 221.44 80.0882 221.68C80.1549 221.92 80.1949 222.153 80.2082 222.38C80.2349 222.593 80.2482 222.787 80.2482 222.96C80.2482 223.347 80.2082 223.687 80.1282 223.98C80.0615 224.26 79.9682 224.5 79.8482 224.7C79.7415 224.9 79.6215 225.067 79.4882 225.2C79.3682 225.32 79.2549 225.42 79.1482 225.5C78.8815 225.687 78.5815 225.82 78.2482 225.9C77.9149 225.967 77.5815 226 77.2482 226H73.6482V215.84H75.3282ZM82.6682 215.84V226H80.9882V215.84H82.6682ZM75.3282 224.76H76.6682C76.8549 224.76 77.0682 224.74 77.3082 224.7C77.5482 224.66 77.7615 224.56 77.9482 224.4C78.0949 224.267 78.2215 224.073 78.3282 223.82C78.4482 223.567 78.5082 223.24 78.5082 222.84C78.5082 222.627 78.4749 222.393 78.4082 222.14C78.3549 221.873 78.2215 221.647 78.0082 221.46C77.8215 221.287 77.6149 221.187 77.3882 221.16C77.1749 221.12 76.9549 221.1 76.7282 221.1H75.3282V224.76ZM92.3321 211.34C92.3188 211.727 92.2321 212.06 92.0721 212.34C91.9254 212.62 91.7654 212.833 91.5921 212.98C91.3654 213.18 91.1188 213.327 90.8521 213.42C90.5854 213.5 90.3121 213.56 90.0321 213.6C89.7521 213.64 89.4588 213.68 89.1521 213.72C88.8588 213.76 88.5588 213.84 88.2521 213.96C88.1321 214 87.9854 214.067 87.8121 214.16C87.6521 214.24 87.4854 214.36 87.3121 214.52C87.1521 214.667 86.9988 214.847 86.8521 215.06C86.7054 215.273 86.5854 215.533 86.4921 215.84C86.4521 215.973 86.4121 216.12 86.3721 216.28C86.3454 216.44 86.3188 216.6 86.2921 216.76C86.2788 216.92 86.2588 217.073 86.2321 217.22C86.2188 217.367 86.2121 217.487 86.2121 217.58H86.2521C86.3054 217.393 86.3788 217.213 86.4721 217.04C86.5654 216.853 86.7054 216.667 86.8921 216.48C87.2121 216.147 87.5454 215.927 87.8921 215.82C88.2388 215.7 88.6321 215.64 89.0721 215.64C89.6588 215.64 90.1788 215.733 90.6321 215.92C91.0988 216.107 91.5254 216.46 91.9121 216.98C92.1388 217.287 92.3188 217.613 92.4521 217.96C92.5988 218.307 92.7054 218.66 92.7721 219.02C92.8521 219.367 92.8988 219.713 92.9121 220.06C92.9388 220.393 92.9521 220.7 92.9521 220.98C92.9521 221.58 92.8788 222.24 92.7321 222.96C92.5854 223.667 92.2921 224.333 91.8521 224.96C91.4921 225.467 91.0854 225.833 90.6321 226.06C90.1788 226.287 89.6121 226.4 88.9321 226.4C88.4121 226.4 87.9188 226.313 87.4521 226.14C86.9988 225.98 86.5854 225.673 86.2121 225.22C85.9054 224.847 85.6654 224.42 85.4921 223.94C85.3188 223.46 85.1854 222.98 85.0921 222.5C85.0121 222.007 84.9588 221.547 84.9321 221.12C84.9188 220.693 84.9121 220.347 84.9121 220.08C84.9121 218.747 84.9588 217.713 85.0521 216.98C85.1588 216.233 85.2654 215.687 85.3721 215.34C85.4388 215.113 85.5254 214.88 85.6321 214.64C85.7388 214.387 85.8721 214.14 86.0321 213.9C86.1921 213.66 86.3854 213.44 86.6121 213.24C86.8388 213.027 87.1121 212.847 87.4321 212.7C87.6721 212.593 87.9654 212.507 88.3121 212.44C88.6721 212.36 89.1921 212.26 89.8721 212.14C90.3254 212.06 90.6254 211.953 90.7721 211.82C90.9188 211.687 90.9921 211.527 90.9921 211.34H92.3321ZM86.6721 220.92C86.6721 221.12 86.6788 221.353 86.6921 221.62C86.7188 221.887 86.7521 222.16 86.7921 222.44C86.8321 222.707 86.8854 222.98 86.9521 223.26C87.0321 223.527 87.1321 223.773 87.2521 224C87.6521 224.773 88.2188 225.16 88.9521 225.16C89.3521 225.16 89.6788 225.06 89.9321 224.86C90.1988 224.647 90.4254 224.367 90.6121 224.02C90.8121 223.62 90.9588 223.14 91.0521 222.58C91.1454 222.02 91.1921 221.487 91.1921 220.98C91.1921 220.513 91.1521 220 91.0721 219.44C90.9921 218.88 90.8388 218.38 90.6121 217.94C90.4254 217.593 90.2054 217.333 89.9521 217.16C89.7121 216.973 89.3788 216.88 88.9521 216.88C88.5654 216.88 88.2388 216.967 87.9721 217.14C87.7054 217.313 87.4654 217.593 87.2521 217.98C87.0254 218.393 86.8721 218.847 86.7921 219.34C86.7121 219.82 86.6721 220.347 86.6721 220.92ZM94.5559 220.9C94.5559 220.607 94.5759 220.267 94.6159 219.88C94.6559 219.493 94.7225 219.1 94.8159 218.7C94.9225 218.3 95.0559 217.913 95.2159 217.54C95.3892 217.153 95.6025 216.82 95.8559 216.54C96.2292 216.127 96.6425 215.84 97.0959 215.68C97.5492 215.52 98.0225 215.44 98.5159 215.44C99.0092 215.44 99.4825 215.52 99.9359 215.68C100.389 215.84 100.803 216.127 101.176 216.54C101.429 216.82 101.636 217.153 101.796 217.54C101.969 217.913 102.103 218.3 102.196 218.7C102.303 219.1 102.376 219.493 102.416 219.88C102.456 220.267 102.476 220.607 102.476 220.9C102.476 221.207 102.456 221.553 102.416 221.94C102.376 222.327 102.303 222.72 102.196 223.12C102.103 223.52 101.969 223.907 101.796 224.28C101.636 224.653 101.429 224.987 101.176 225.28C100.789 225.707 100.376 226 99.9359 226.16C99.4959 226.32 99.0225 226.4 98.5159 226.4C98.0092 226.4 97.5359 226.32 97.0959 226.16C96.6559 226 96.2425 225.707 95.8559 225.28C95.6025 224.987 95.3892 224.653 95.2159 224.28C95.0559 223.907 94.9225 223.52 94.8159 223.12C94.7225 222.72 94.6559 222.327 94.6159 221.94C94.5759 221.553 94.5559 221.207 94.5559 220.9ZM96.3159 220.9C96.3159 221.567 96.3559 222.14 96.4359 222.62C96.5292 223.087 96.6625 223.513 96.8359 223.9C96.9959 224.247 97.2025 224.547 97.4559 224.8C97.7092 225.04 98.0625 225.16 98.5159 225.16C98.9692 225.16 99.3225 225.04 99.5759 224.8C99.8292 224.547 100.036 224.247 100.196 223.9C100.369 223.513 100.496 223.087 100.576 222.62C100.669 222.14 100.716 221.567 100.716 220.9C100.716 220.34 100.676 219.813 100.596 219.32C100.529 218.827 100.396 218.36 100.196 217.92C100.023 217.547 99.8092 217.247 99.5559 217.02C99.3159 216.793 98.9692 216.68 98.5159 216.68C98.0625 216.68 97.7092 216.793 97.4559 217.02C97.2159 217.247 97.0092 217.547 96.8359 217.92C96.6359 218.36 96.4959 218.827 96.4159 219.32C96.3492 219.813 96.3159 220.34 96.3159 220.9ZM106.108 215.84V216.88H106.148C106.214 216.733 106.288 216.607 106.368 216.5C106.448 216.38 106.541 216.267 106.648 216.16C106.834 215.973 107.081 215.807 107.388 215.66C107.694 215.513 108.074 215.44 108.528 215.44C109.114 215.44 109.621 215.56 110.048 215.8C110.488 216.027 110.861 216.36 111.168 216.8C111.408 217.133 111.594 217.493 111.728 217.88C111.861 218.253 111.961 218.627 112.028 219C112.108 219.373 112.154 219.727 112.168 220.06C112.181 220.393 112.188 220.68 112.188 220.92C112.188 221.533 112.128 222.187 112.008 222.88C111.888 223.56 111.661 224.187 111.328 224.76C110.688 225.853 109.761 226.4 108.548 226.4C108.161 226.4 107.808 226.333 107.488 226.2C107.168 226.08 106.894 225.92 106.668 225.72C106.561 225.627 106.468 225.533 106.388 225.44C106.321 225.347 106.254 225.247 106.188 225.14V229.7H104.508V215.84H106.108ZM106.108 220.96C106.108 221.347 106.121 221.767 106.148 222.22C106.188 222.673 106.301 223.133 106.488 223.6C106.634 223.973 106.801 224.267 106.988 224.48C107.174 224.68 107.354 224.833 107.528 224.94C107.714 225.033 107.874 225.093 108.008 225.12C108.154 225.147 108.254 225.16 108.308 225.16C108.401 225.16 108.521 225.147 108.668 225.12C108.828 225.093 108.988 225.033 109.148 224.94C109.308 224.833 109.468 224.687 109.628 224.5C109.788 224.3 109.928 224.04 110.048 223.72C110.101 223.573 110.174 223.287 110.268 222.86C110.374 222.42 110.428 221.773 110.428 220.92C110.428 219.6 110.254 218.587 109.908 217.88C109.654 217.36 109.368 217.033 109.048 216.9C108.741 216.753 108.468 216.68 108.228 216.68C107.961 216.68 107.681 216.767 107.388 216.94C107.094 217.113 106.834 217.44 106.608 217.92C106.381 218.387 106.241 218.873 106.188 219.38C106.134 219.873 106.108 220.4 106.108 220.96ZM114.054 218.84C114.054 218.493 114.094 218.147 114.174 217.8C114.254 217.44 114.381 217.12 114.554 216.84C114.874 216.293 115.287 215.927 115.794 215.74C116.314 215.54 116.874 215.44 117.474 215.44C118.034 215.44 118.501 215.507 118.874 215.64C119.261 215.773 119.567 215.94 119.794 216.14C120.207 216.487 120.467 216.9 120.574 217.38C120.694 217.86 120.754 218.353 120.754 218.86V223.9C120.754 224.273 120.787 224.507 120.854 224.6C120.921 224.693 121.007 224.747 121.114 224.76C121.221 224.773 121.347 224.767 121.494 224.74V226C121.401 226.013 121.274 226.027 121.114 226.04C120.954 226.067 120.801 226.08 120.654 226.08C120.521 226.08 120.374 226.067 120.214 226.04C120.067 226.013 119.914 225.94 119.754 225.82C119.607 225.713 119.501 225.6 119.434 225.48C119.381 225.36 119.347 225.247 119.334 225.14C118.947 225.647 118.501 225.98 117.994 226.14C117.501 226.313 117.007 226.4 116.514 226.4C116.327 226.4 116.134 226.387 115.934 226.36C115.734 226.333 115.534 226.273 115.334 226.18C115.134 226.1 114.941 225.987 114.754 225.84C114.581 225.68 114.414 225.48 114.254 225.24C114.067 224.933 113.941 224.627 113.874 224.32C113.821 224.013 113.794 223.687 113.794 223.34C113.794 222.9 113.867 222.46 114.014 222.02C114.161 221.58 114.467 221.207 114.934 220.9C115.161 220.753 115.427 220.627 115.734 220.52C116.054 220.4 116.434 220.307 116.874 220.24C117.127 220.2 117.394 220.167 117.674 220.14C117.967 220.1 118.227 220.053 118.454 220C118.547 219.973 118.641 219.94 118.734 219.9C118.827 219.86 118.907 219.787 118.974 219.68C119.014 219.613 119.041 219.52 119.054 219.4C119.067 219.28 119.074 219.087 119.074 218.82C119.074 218.7 119.067 218.567 119.054 218.42C119.054 218.273 119.041 218.12 119.014 217.96C118.987 217.8 118.941 217.647 118.874 217.5C118.821 217.34 118.734 217.2 118.614 217.08C118.441 216.893 118.254 216.78 118.054 216.74C117.867 216.7 117.674 216.68 117.474 216.68C117.287 216.68 117.087 216.7 116.874 216.74C116.661 216.78 116.461 216.893 116.274 217.08C116.021 217.307 115.854 217.593 115.774 217.94C115.707 218.273 115.681 218.573 115.694 218.84H114.054ZM119.074 221.06C118.887 221.113 118.727 221.147 118.594 221.16C118.461 221.173 118.321 221.193 118.174 221.22C117.867 221.26 117.594 221.3 117.354 221.34C117.127 221.367 116.907 221.413 116.694 221.48C116.427 221.573 116.214 221.7 116.054 221.86C115.907 222.007 115.794 222.167 115.714 222.34C115.634 222.513 115.581 222.7 115.554 222.9C115.541 223.087 115.534 223.267 115.534 223.44C115.534 223.64 115.547 223.853 115.574 224.08C115.601 224.293 115.687 224.493 115.834 224.68C115.981 224.867 116.141 224.993 116.314 225.06C116.501 225.127 116.667 225.16 116.814 225.16C117.147 225.16 117.474 225.087 117.794 224.94C118.114 224.78 118.374 224.56 118.574 224.28C118.827 223.933 118.974 223.527 119.014 223.06C119.054 222.593 119.074 222.133 119.074 221.68V221.06ZM129.645 218.82H129.585L129.645 219.66V226H127.965V215.84H130.125L132.605 223.58L135.085 215.84H137.245V226H135.565V219.66L135.625 218.82H135.565L133.285 226H131.925L129.645 218.82ZM145.102 215.84H146.922V226H145.242V219.12L145.322 218.04H145.282L144.962 219L141.542 226H139.722V215.84H141.402V222.7L141.322 223.8H141.362L141.682 222.82L145.102 215.84ZM151.01 215.84V216.88H151.05C151.117 216.733 151.19 216.607 151.27 216.5C151.35 216.38 151.443 216.267 151.55 216.16C151.737 215.973 151.983 215.807 152.29 215.66C152.597 215.513 152.977 215.44 153.43 215.44C154.017 215.44 154.523 215.56 154.95 215.8C155.39 216.027 155.763 216.36 156.07 216.8C156.31 217.133 156.497 217.493 156.63 217.88C156.763 218.253 156.863 218.627 156.93 219C157.01 219.373 157.057 219.727 157.07 220.06C157.083 220.393 157.09 220.68 157.09 220.92C157.09 221.533 157.03 222.187 156.91 222.88C156.79 223.56 156.563 224.187 156.23 224.76C155.59 225.853 154.663 226.4 153.45 226.4C153.063 226.4 152.71 226.333 152.39 226.2C152.07 226.08 151.797 225.92 151.57 225.72C151.463 225.627 151.37 225.533 151.29 225.44C151.223 225.347 151.157 225.247 151.09 225.14V229.7H149.41V215.84H151.01ZM151.01 220.96C151.01 221.347 151.023 221.767 151.05 222.22C151.09 222.673 151.203 223.133 151.39 223.6C151.537 223.973 151.703 224.267 151.89 224.48C152.077 224.68 152.257 224.833 152.43 224.94C152.617 225.033 152.777 225.093 152.91 225.12C153.057 225.147 153.157 225.16 153.21 225.16C153.303 225.16 153.423 225.147 153.57 225.12C153.73 225.093 153.89 225.033 154.05 224.94C154.21 224.833 154.37 224.687 154.53 224.5C154.69 224.3 154.83 224.04 154.95 223.72C155.003 223.573 155.077 223.287 155.17 222.86C155.277 222.42 155.33 221.773 155.33 220.92C155.33 219.6 155.157 218.587 154.81 217.88C154.557 217.36 154.27 217.033 153.95 216.9C153.643 216.753 153.37 216.68 153.13 216.68C152.863 216.68 152.583 216.767 152.29 216.94C151.997 217.113 151.737 217.44 151.51 217.92C151.283 218.387 151.143 218.873 151.09 219.38C151.037 219.873 151.01 220.4 151.01 220.96ZM158.956 218.84C158.956 218.493 158.996 218.147 159.076 217.8C159.156 217.44 159.283 217.12 159.456 216.84C159.776 216.293 160.19 215.927 160.696 215.74C161.216 215.54 161.776 215.44 162.376 215.44C162.936 215.44 163.403 215.507 163.776 215.64C164.163 215.773 164.47 215.94 164.696 216.14C165.11 216.487 165.37 216.9 165.476 217.38C165.596 217.86 165.656 218.353 165.656 218.86V223.9C165.656 224.273 165.69 224.507 165.756 224.6C165.823 224.693 165.91 224.747 166.016 224.76C166.123 224.773 166.25 224.767 166.396 224.74V226C166.303 226.013 166.176 226.027 166.016 226.04C165.856 226.067 165.703 226.08 165.556 226.08C165.423 226.08 165.276 226.067 165.116 226.04C164.97 226.013 164.816 225.94 164.656 225.82C164.51 225.713 164.403 225.6 164.336 225.48C164.283 225.36 164.25 225.247 164.236 225.14C163.85 225.647 163.403 225.98 162.896 226.14C162.403 226.313 161.91 226.4 161.416 226.4C161.23 226.4 161.036 226.387 160.836 226.36C160.636 226.333 160.436 226.273 160.236 226.18C160.036 226.1 159.843 225.987 159.656 225.84C159.483 225.68 159.316 225.48 159.156 225.24C158.97 224.933 158.843 224.627 158.776 224.32C158.723 224.013 158.696 223.687 158.696 223.34C158.696 222.9 158.77 222.46 158.916 222.02C159.063 221.58 159.37 221.207 159.836 220.9C160.063 220.753 160.33 220.627 160.636 220.52C160.956 220.4 161.336 220.307 161.776 220.24C162.03 220.2 162.296 220.167 162.576 220.14C162.87 220.1 163.13 220.053 163.356 220C163.45 219.973 163.543 219.94 163.636 219.9C163.73 219.86 163.81 219.787 163.876 219.68C163.916 219.613 163.943 219.52 163.956 219.4C163.97 219.28 163.976 219.087 163.976 218.82C163.976 218.7 163.97 218.567 163.956 218.42C163.956 218.273 163.943 218.12 163.916 217.96C163.89 217.8 163.843 217.647 163.776 217.5C163.723 217.34 163.636 217.2 163.516 217.08C163.343 216.893 163.156 216.78 162.956 216.74C162.77 216.7 162.576 216.68 162.376 216.68C162.19 216.68 161.99 216.7 161.776 216.74C161.563 216.78 161.363 216.893 161.176 217.08C160.923 217.307 160.756 217.593 160.676 217.94C160.61 218.273 160.583 218.573 160.596 218.84H158.956ZM163.976 221.06C163.79 221.113 163.63 221.147 163.496 221.16C163.363 221.173 163.223 221.193 163.076 221.22C162.77 221.26 162.496 221.3 162.256 221.34C162.03 221.367 161.81 221.413 161.596 221.48C161.33 221.573 161.116 221.7 160.956 221.86C160.81 222.007 160.696 222.167 160.616 222.34C160.536 222.513 160.483 222.7 160.456 222.9C160.443 223.087 160.436 223.267 160.436 223.44C160.436 223.64 160.45 223.853 160.476 224.08C160.503 224.293 160.59 224.493 160.736 224.68C160.883 224.867 161.043 224.993 161.216 225.06C161.403 225.127 161.57 225.16 161.716 225.16C162.05 225.16 162.376 225.087 162.696 224.94C163.016 224.78 163.276 224.56 163.476 224.28C163.73 223.933 163.876 223.527 163.916 223.06C163.956 222.593 163.976 222.133 163.976 221.68V221.06ZM177.527 215.84H179.387L175.887 220.56L179.567 226H177.707L174.547 221.18V226H172.867V215.84H174.547V220.06L177.527 215.84ZM187.47 215.84V226H185.81V217.08H183.37V219.66C183.37 220.527 183.343 221.347 183.29 222.12C183.25 222.893 183.137 223.573 182.95 224.16C182.777 224.747 182.517 225.213 182.17 225.56C181.823 225.907 181.35 226.08 180.75 226.08C180.617 226.08 180.477 226.073 180.33 226.06C180.197 226.047 180.057 226.02 179.91 225.98V224.7C180.377 224.82 180.737 224.753 180.99 224.5C181.243 224.247 181.423 223.88 181.53 223.4C181.65 222.907 181.717 222.333 181.73 221.68C181.757 221.027 181.77 220.353 181.77 219.66V215.84H187.47ZM195.337 215.84H197.157V226H195.477V219.12L195.557 218.04H195.517L195.197 219L191.777 226H189.957V215.84H191.637V222.7L191.557 223.8H191.597L191.917 222.82L195.337 215.84ZM204.304 215.84H206.164L202.664 220.56L206.344 226H204.484L201.324 221.18V226H199.644V215.84H201.324V220.06L204.304 215.84ZM209.332 226H207.652V215.84H209.332V220.02H212.812V215.84H214.492V226H212.812V221.26H209.332V226ZM222.349 215.84H224.169V226H222.489V219.12L222.569 218.04H222.529L222.209 219L218.789 226H216.969V215.84H218.649V222.7L218.569 223.8H218.609L218.929 222.82L222.349 215.84ZM225.576 217.08V215.84H232.616V217.08H229.936V226H228.256V217.08H225.576ZM240.809 223.06C240.782 223.42 240.702 223.793 240.569 224.18C240.435 224.553 240.242 224.893 239.989 225.2C239.575 225.707 239.115 226.033 238.609 226.18C238.102 226.327 237.609 226.4 237.129 226.4C236.875 226.4 236.622 226.38 236.369 226.34C236.115 226.313 235.862 226.247 235.609 226.14C235.369 226.033 235.129 225.887 234.889 225.7C234.649 225.513 234.422 225.267 234.209 224.96C233.982 224.64 233.802 224.307 233.669 223.96C233.535 223.613 233.429 223.267 233.349 222.92C233.282 222.56 233.235 222.213 233.209 221.88C233.195 221.547 233.189 221.24 233.189 220.96C233.189 220.76 233.195 220.493 233.209 220.16C233.235 219.813 233.282 219.447 233.349 219.06C233.429 218.673 233.535 218.287 233.669 217.9C233.802 217.5 233.989 217.14 234.229 216.82C234.655 216.26 235.129 215.893 235.649 215.72C236.182 215.533 236.689 215.44 237.169 215.44C237.769 215.44 238.322 215.56 238.829 215.8C239.335 216.04 239.769 216.48 240.129 217.12C240.195 217.24 240.269 217.407 240.349 217.62C240.442 217.82 240.529 218.087 240.609 218.42C240.689 218.753 240.755 219.16 240.809 219.64C240.862 220.12 240.889 220.68 240.889 221.32H234.949C234.935 221.8 234.982 222.313 235.089 222.86C235.209 223.407 235.402 223.873 235.669 224.26C235.855 224.553 236.075 224.78 236.329 224.94C236.582 225.087 236.882 225.16 237.229 225.16C237.535 225.16 237.822 225.093 238.089 224.96C238.355 224.827 238.595 224.593 238.809 224.26C238.915 224.087 238.995 223.9 239.049 223.7C239.115 223.487 239.162 223.273 239.189 223.06H240.809ZM239.129 220.08C239.129 219.68 239.089 219.253 239.009 218.8C238.929 218.333 238.815 217.947 238.669 217.64C238.509 217.32 238.315 217.08 238.089 216.92C237.862 216.76 237.555 216.68 237.169 216.68C236.875 216.68 236.589 216.74 236.309 216.86C236.042 216.967 235.795 217.187 235.569 217.52C235.355 217.827 235.195 218.227 235.089 218.72C234.995 219.2 234.949 219.653 234.949 220.08H239.129ZM249.274 226H247.594V215.84H254.514V226H252.834V217.08H249.274V226ZM256.548 220.9C256.548 220.607 256.568 220.267 256.608 219.88C256.648 219.493 256.715 219.1 256.808 218.7C256.915 218.3 257.048 217.913 257.208 217.54C257.381 217.153 257.595 216.82 257.848 216.54C258.221 216.127 258.635 215.84 259.088 215.68C259.541 215.52 260.015 215.44 260.508 215.44C261.001 215.44 261.475 215.52 261.928 215.68C262.381 215.84 262.795 216.127 263.168 216.54C263.421 216.82 263.628 217.153 263.788 217.54C263.961 217.913 264.095 218.3 264.188 218.7C264.295 219.1 264.368 219.493 264.408 219.88C264.448 220.267 264.468 220.607 264.468 220.9C264.468 221.207 264.448 221.553 264.408 221.94C264.368 222.327 264.295 222.72 264.188 223.12C264.095 223.52 263.961 223.907 263.788 224.28C263.628 224.653 263.421 224.987 263.168 225.28C262.781 225.707 262.368 226 261.928 226.16C261.488 226.32 261.015 226.4 260.508 226.4C260.001 226.4 259.528 226.32 259.088 226.16C258.648 226 258.235 225.707 257.848 225.28C257.595 224.987 257.381 224.653 257.208 224.28C257.048 223.907 256.915 223.52 256.808 223.12C256.715 222.72 256.648 222.327 256.608 221.94C256.568 221.553 256.548 221.207 256.548 220.9ZM258.308 220.9C258.308 221.567 258.348 222.14 258.428 222.62C258.521 223.087 258.655 223.513 258.828 223.9C258.988 224.247 259.195 224.547 259.448 224.8C259.701 225.04 260.055 225.16 260.508 225.16C260.961 225.16 261.315 225.04 261.568 224.8C261.821 224.547 262.028 224.247 262.188 223.9C262.361 223.513 262.488 223.087 262.568 222.62C262.661 222.14 262.708 221.567 262.708 220.9C262.708 220.34 262.668 219.813 262.588 219.32C262.521 218.827 262.388 218.36 262.188 217.92C262.015 217.547 261.801 217.247 261.548 217.02C261.308 216.793 260.961 216.68 260.508 216.68C260.055 216.68 259.701 216.793 259.448 217.02C259.208 217.247 259.001 217.547 258.828 217.92C258.628 218.36 258.488 218.827 258.408 219.32C258.341 219.813 258.308 220.34 258.308 220.9ZM272.848 226H271.168V215.84H272.848V220.02H276.328V215.84H278.008V226H276.328V221.26H272.848V226ZM287.664 223.06C287.637 223.42 287.557 223.793 287.424 224.18C287.291 224.553 287.097 224.893 286.844 225.2C286.431 225.707 285.971 226.033 285.464 226.18C284.957 226.327 284.464 226.4 283.984 226.4C283.731 226.4 283.477 226.38 283.224 226.34C282.971 226.313 282.717 226.247 282.464 226.14C282.224 226.033 281.984 225.887 281.744 225.7C281.504 225.513 281.277 225.267 281.064 224.96C280.837 224.64 280.657 224.307 280.524 223.96C280.391 223.613 280.284 223.267 280.204 222.92C280.137 222.56 280.091 222.213 280.064 221.88C280.051 221.547 280.044 221.24 280.044 220.96C280.044 220.76 280.051 220.493 280.064 220.16C280.091 219.813 280.137 219.447 280.204 219.06C280.284 218.673 280.391 218.287 280.524 217.9C280.657 217.5 280.844 217.14 281.084 216.82C281.511 216.26 281.984 215.893 282.504 215.72C283.037 215.533 283.544 215.44 284.024 215.44C284.624 215.44 285.177 215.56 285.684 215.8C286.191 216.04 286.624 216.48 286.984 217.12C287.051 217.24 287.124 217.407 287.204 217.62C287.297 217.82 287.384 218.087 287.464 218.42C287.544 218.753 287.611 219.16 287.664 219.64C287.717 220.12 287.744 220.68 287.744 221.32H281.804C281.791 221.8 281.837 222.313 281.944 222.86C282.064 223.407 282.257 223.873 282.524 224.26C282.711 224.553 282.931 224.78 283.184 224.94C283.437 225.087 283.737 225.16 284.084 225.16C284.391 225.16 284.677 225.093 284.944 224.96C285.211 224.827 285.451 224.593 285.664 224.26C285.771 224.087 285.851 223.9 285.904 223.7C285.971 223.487 286.017 223.273 286.044 223.06H287.664ZM285.984 220.08C285.984 219.68 285.944 219.253 285.864 218.8C285.784 218.333 285.671 217.947 285.524 217.64C285.364 217.32 285.171 217.08 284.944 216.92C284.717 216.76 284.411 216.68 284.024 216.68C283.731 216.68 283.444 216.74 283.164 216.86C282.897 216.967 282.651 217.187 282.424 217.52C282.211 217.827 282.051 218.227 281.944 218.72C281.851 219.2 281.804 219.653 281.804 220.08H285.984ZM291.461 218.82H291.401L291.461 219.66V226H289.781V215.84H291.941L294.421 223.58L296.901 215.84H299.061V226H297.381V219.66L297.441 218.82H297.381L295.101 226H293.741L291.461 218.82ZM301.739 228.22C301.845 228.287 301.965 228.347 302.099 228.4C302.245 228.453 302.385 228.48 302.519 228.48C302.705 228.48 302.859 228.433 302.979 228.34C303.099 228.247 303.199 228.12 303.279 227.96C303.359 227.813 303.425 227.633 303.479 227.42C303.532 227.22 303.585 227 303.639 226.76L303.799 226L300.459 215.84H302.379L304.679 223.66L306.579 215.84H308.259L305.199 227.2C305.092 227.613 304.992 227.94 304.899 228.18C304.819 228.42 304.725 228.633 304.619 228.82C304.339 229.247 304.005 229.513 303.619 229.62C303.245 229.727 302.912 229.78 302.619 229.78C302.365 229.78 302.072 229.74 301.739 229.66V228.22ZM310.341 223.82H312.181V226H310.341V223.82Z" fill="#EBE6E1"/>
</svg>
